<svg class="animated" id="freepik_stories-palette"
    xmlns="http://www.w3.org/2000/svg" viewBox="0 0 500 500" version="1.1"
    xmlns:xlink="http://www.w3.org/1999/xlink"
    xmlns:svgjs="http://svgjs.com/svgjs">
    <style>svg#freepik_stories-palette:not(.animated) .animable {opacity: 0;}svg#freepik_stories-palette.animated #freepik--Brush--inject-222 {animation: 1.5s Infinite  linear wind;animation-delay: 0s;}svg#freepik_stories-palette.animated #freepik--palette-3--inject-222 {animation: 1s 1 forwards cubic-bezier(.36,-0.01,.5,1.38) fadeIn;animation-delay: 0s;}svg#freepik_stories-palette.animated #freepik--pallete-1--inject-222 {animation: 1.5s Infinite  linear wind;animation-delay: 0s;}            @keyframes wind {                0% {                    transform: rotate( 0deg );                }                25% {                    transform: rotate( 1deg );                }                75% {                    transform: rotate( -1deg );                }            }                    @keyframes fadeIn {                0% {                    opacity: 0;                }                100% {                    opacity: 1;                }            }        </style>
    <g id="freepik--background-complete--inject-222" class="animable" style="transform-origin: 262.393px 270.902px;">
        <path d="M450.18,292.22h0a3.2,3.2,0,0,1-4.1-1.81L379.86,124.1l9.39-3.52,62.8,167.52A3.2,3.2,0,0,1,450.18,292.22Z" style="fill: rgb(224, 224, 224); transform-origin: 416.057px 206.503px;" id="elm4ernq1084a" class="animable"></path>
        <path d="M379.86,124.1c-.44-1.15-6.52-27.23-6.52-27.23l2.92-1.1,13,24.81Z" style="fill: rgb(235, 235, 235); transform-origin: 381.3px 109.935px;" id="el6r9mp207jt3" class="animable"></path>
        <polyline points="376.26 95.77 372.41 74.17 365.07 76.63 369.62 88.77 363.79 77.11 362.43 77.61 373.34 96.87 375.2 96.17" style="fill: rgb(224, 224, 224); transform-origin: 369.345px 85.52px;" id="elvlzcoiv2q2a" class="animable"></polyline>
        <path d="M397.1,319.1c-3.25,4.47-5.69,2.14-14.45,7.28-4.77,2.79-7.06,9.27-5.95,14.68s5.92,10.22,11.44,10.15c3.57,0,6.8-2,10.17-3.16s7.58-1.51,10.05,1.05c3.48,3.61,1.07,10-.69,14a12,12,0,0,0-1.07,5.33c.4,8.19,8.77,8.24,13.34,4.71,3.46-2.68,5.47-6.78,8-10.34s6.29-6.9,10.67-6.72c4.72.19,8.18,4.25,11.67,7.43s9,5.71,12.68,2.78c2.76-2.2,2.93-6.35,2.19-9.81s-2.14-6.91-1.63-10.4c.65-4.4,4-7.48,8-9.79a5.83,5.83,0,0,0-.93-10.54l-.11,0c-3.53-1.19-7.35-1.42-10.8-2.84s-6.66-4.58-6.35-8.29c.36-4.41,5.44-7.61,3.52-12.55a7.53,7.53,0,0,0-6.83-4.63c-6.68-.21-11.12,4.61-16,8.26-4,3-9.22,5.28-13.72,3.25-5.07-2.3-6.65-8.94-11.2-12.14a10.12,10.12,0,0,0-12.77,15.63A4.56,4.56,0,0,1,397.1,319.1Z" style="fill: rgb(245, 245, 245); transform-origin: 425.435px 335.175px;" id="eltei890b052h" class="animable"></path>
        <path d="M79.39,197.77c-4,3.85-6,1.14-15.49,4.69-5.18,1.93-8.54,7.93-8.38,13.45s4.08,11.08,9.54,12c3.52.57,7-.76,10.55-1.37s7.73-.19,9.73,2.76c2.81,4.15-.65,10-3.09,13.7a11.87,11.87,0,0,0-2,5.06c-1,8.14,7.23,9.63,12.33,6.93,3.87-2,6.56-5.73,9.69-8.8s7.38-5.72,11.66-4.8c4.62,1,7.33,5.59,10.22,9.32s7.87,7.17,12,4.91c3.1-1.69,4-5.76,3.84-9.29s-.93-7.17.18-10.53c1.39-4.22,5.2-6.68,9.52-8.27a5.84,5.84,0,0,0,.9-10.55l-.1-.05c-3.28-1.78-7-2.67-10.16-4.65s-5.77-5.65-4.84-9.26c1.12-4.28,6.66-6.56,5.62-11.76a7.52,7.52,0,0,0-5.93-5.73c-6.55-1.36-11.75,2.64-17.2,5.4-4.4,2.23-10,3.62-14.08.84-4.6-3.13-5-9.95-8.95-13.88a10.12,10.12,0,0,0-15.26,13.21A4.57,4.57,0,0,1,79.39,197.77Z" style="fill: rgb(245, 245, 245); transform-origin: 104.519px 215.644px;" id="elq384ssg4o4" class="animable"></path>
        <g id="elsxe35rqhi8">
            <rect x="136.45" y="366.94" width="77.89" height="94.72" style="fill: rgb(245, 245, 245); transform-origin: 175.395px 414.3px; transform: rotate(9.87deg);" class="animable"></rect>
        </g>
        <g id="elh8id88k45tt">
            <rect x="138.52" y="367.12" width="77.89" height="70.48" style="fill: rgb(235, 235, 235); transform-origin: 177.465px 402.36px; transform: rotate(9.87deg);" class="animable"></rect>
        </g>
        <path d="M180.21,446.68c0,.14-10-1.47-22.21-3.6s-22.15-4-22.12-4.11,10,1.47,22.21,3.6S180.23,446.54,180.21,446.68Z" style="fill: rgb(224, 224, 224); transform-origin: 158.045px 442.827px;" id="ely6cbogq4jq" class="animable"></path>
        <path d="M154.31,447.09a91,91,0,0,1-9.68-1.42,90.4,90.4,0,0,1-9.58-1.93,91.46,91.46,0,0,1,9.67,1.42A91.64,91.64,0,0,1,154.31,447.09Z" style="fill: rgb(224, 224, 224); transform-origin: 144.68px 445.415px;" id="elorqwxrjpeep" class="animable"></path>
        <path d="M205.64,467.63l.06-.45.22-1.31c.19-1.16.48-2.86.85-5.07.76-4.43,1.86-10.89,3.26-19.09,2.82-16.39,6.84-39.7,11.61-67.44l.19.27L145.1,361.22h0l.3-.21c-6,34.5-11.61,66.6-16.27,93.31l-.18-.25,55.63,9.79,15.55,2.76,4.1.74,1.42.27s-.46-.06-1.38-.22l-4.07-.68-15.52-2.64-55.8-9.59-.22,0,0-.21c4.64-26.72,10.21-58.82,16.19-93.33l.05-.26.25,0h0l76.72,13.38.23,0,0,.23c-4.88,27.79-9,51.13-11.87,67.54-1.44,8.17-2.59,14.61-3.37,19-.39,2.18-.69,3.86-.9,5-.1.55-.18,1-.23,1.28Z" style="fill: rgb(224, 224, 224); transform-origin: 175.38px 414.165px;" id="elvlm9m7rswr" class="animable"></path>
        <circle cx="59.57" cy="247.45" r="9.23" style="fill: rgb(245, 245, 245); transform-origin: 59.57px 247.45px;" id="elyattb77huej" class="animable"></circle>
        <circle cx="452.26" cy="389.95" r="9.23" style="fill: rgb(245, 245, 245); transform-origin: 452.26px 389.95px;" id="el1zl7o0iflyy" class="animable"></circle>
    </g>
    <g id="freepik--Brush--inject-222" class="animable" style="transform-origin: 449.607px 167.481px;">
        <path d="M470.31,282h0a3.21,3.21,0,0,1-3.67-2.58l-32.46-176,9.9-1.62L473,278.29A3.21,3.21,0,0,1,470.31,282Z" style="fill: rgb(38, 50, 56); transform-origin: 453.612px 191.921px;" id="el3q74xwyyc6g" class="animable"></path>
        <path d="M434.18,103.34c-.2-1.21-1.07-28-1.07-28l3.08-.51,7.89,26.86Z" style="fill: rgb(224, 224, 224); transform-origin: 438.595px 89.085px;" id="elzud2jk7cvsl" class="animable"></path>
        <polyline points="436.19 74.86 436.63 52.92 428.95 53.9 431.04 66.7 427.6 54.12 426.17 54.35 433.11 75.37 435.07 75.05" style="fill: rgb(253, 51, 121); transform-origin: 431.4px 64.145px;" id="elhtny27b22tq" class="animable"></polyline>
    </g>
    <g id="freepik--palette-4--inject-222" class="animable" style="transform-origin: 376.79px 392.678px;">
        <rect x="381.96" y="381.42" width="22.58" height="22.58" style="fill: rgb(69, 90, 100); transform-origin: 393.25px 392.71px;" id="eltouu1jwuuy" class="animable"></rect>
        <polygon points="404.55 391.85 390.63 404 404.55 404 404.55 391.85" style="fill: rgb(250, 250, 250); transform-origin: 397.59px 397.925px;" id="elx4uz3ca8mdd" class="animable"></polygon>
        <path d="M404.55,404a2.79,2.79,0,0,1,0-.44c0-.32,0-.72,0-1.23,0-1.11,0-2.66-.06-4.61,0-4-.07-9.59-.12-16.3l.23.22-22.58,0c-.06.05.49-.49.25-.26h0v6.07c0,2,0,3.94,0,5.84,0,3.79,0,7.36,0,10.65l-.23-.22,16.3.11,4.62.06,1.23,0a2.3,2.3,0,0,1,.44,0,1.81,1.81,0,0,1-.39,0l-1.19,0-4.56.06-16.45.12h-.22V404c0-3.29,0-6.86,0-10.65v-5.84c0-1,0-2,0-3v-3.05h0c-.23.23.32-.32.27-.26l22.58,0h.22v.23c0,6.77-.08,12.42-.11,16.44,0,1.93-.05,3.46-.06,4.56,0,.49,0,.88,0,1.19A2.53,2.53,0,0,1,404.55,404Z" style="fill: rgb(38, 50, 56); transform-origin: 393.327px 392.633px;" id="elwhwzoagap5" class="animable"></path>
        <rect x="410.05" y="381.42" width="22.58" height="22.58" style="fill: rgb(224, 224, 224); transform-origin: 421.34px 392.71px;" id="el1s5mz9kw1ki" class="animable"></rect>
        <polygon points="432.63 391.85 418.72 404 432.63 404 432.63 391.85" style="fill: rgb(250, 250, 250); transform-origin: 425.675px 397.925px;" id="el0bk0oaca6jx9" class="animable"></polygon>
        <path d="M432.63,404a2.3,2.3,0,0,1,0-.44c0-.32,0-.72,0-1.23,0-1.11,0-2.66-.06-4.61,0-4-.07-9.59-.11-16.3l.22.22-22.58,0,.26-.26h0v6.07c0,2,0,3.94,0,5.84,0,3.79,0,7.36,0,10.65l-.22-.22,16.3.11L431,404l1.23,0a2.3,2.3,0,0,1,.44,0,1.7,1.7,0,0,1-.39,0l-1.19,0-4.56.06-16.44.12h-.23V404c0-3.29,0-6.86,0-10.65,0-1.9,0-3.85,0-5.84v-6.07h0c-.24.23.31-.32.26-.26l22.58,0h.23v.23c-.05,6.77-.09,12.42-.12,16.44,0,1.93,0,3.46-.06,4.56,0,.49,0,.88,0,1.19A1.7,1.7,0,0,1,432.63,404Z" style="fill: rgb(38, 50, 56); transform-origin: 421.365px 392.678px;" id="eluuqcjzigcp8" class="animable"></path>
        <rect x="351.94" y="381.42" width="22.58" height="22.58" style="fill: rgb(253, 51, 121); transform-origin: 363.23px 392.71px;" id="elr73pegdt21b" class="animable"></rect>
        <polygon points="374.52 391.85 360.61 404 374.52 404 374.52 391.85" style="fill: rgb(250, 250, 250); transform-origin: 367.565px 397.925px;" id="el4kohyp94zpf" class="animable"></polygon>
        <path d="M374.52,404s0-.16,0-.44,0-.72,0-1.23c0-1.11,0-2.66-.06-4.61,0-4-.06-9.59-.11-16.3l.22.22-22.58,0,.26-.26h0v6.07c0,2,0,3.94,0,5.84,0,3.79,0,7.36,0,10.65l-.23-.22,16.3.11,4.61.06,1.23,0a2.12,2.12,0,0,1,.44,0,1.7,1.7,0,0,1-.39,0l-1.18,0-4.57.06-16.44.12h-.22V404c0-3.29,0-6.86,0-10.65,0-1.9,0-3.85,0-5.84v-6.07h0l.26-.26,22.58,0h.23v.23c-.05,6.77-.09,12.42-.12,16.44,0,1.93,0,3.46-.05,4.56,0,.49,0,.88,0,1.19A1.7,1.7,0,0,1,374.52,404Z" style="fill: rgb(38, 50, 56); transform-origin: 363.335px 392.625px;" id="elukg87d08ah9" class="animable"></path>
        <rect x="320.85" y="381.42" width="22.58" height="22.58" style="fill: rgb(38, 50, 56); transform-origin: 332.14px 392.71px;" id="elky3kdfsg44" class="animable"></rect>
        <polygon points="343.43 391.85 329.51 404 343.43 404 343.43 391.85" style="fill: rgb(250, 250, 250); transform-origin: 336.47px 397.925px;" id="el6783yyi0mne" class="animable"></polygon>
        <path d="M343.43,404a2.79,2.79,0,0,1,0-.44c0-.32,0-.72,0-1.23,0-1.11,0-2.66-.06-4.61,0-4-.07-9.59-.12-16.3l.23.22-22.58,0,.26-.26h0v3.05c0,1,0,2,0,3v5.84c0,3.79,0,7.36,0,10.65l-.22-.22,16.3.11,4.61.06,1.23,0a2.3,2.3,0,0,1,.44,0,1.7,1.7,0,0,1-.39,0l-1.19,0-4.56.06-16.44.12h-.23V404c0-3.29,0-6.86,0-10.65V381.44h0c-.24.23.31-.32.26-.26l22.58,0h.23v.23c-.05,6.77-.09,12.42-.12,16.44,0,1.93,0,3.46-.06,4.56,0,.49,0,.88,0,1.19A1.7,1.7,0,0,1,343.43,404Z" style="fill: rgb(38, 50, 56); transform-origin: 332.215px 392.613px;" id="elulj57sjpdai" class="animable"></path>
    </g>
    <g id="freepik--palette-3--inject-222" class="animable animator-active" style="transform-origin: 333.57px 245.903px;">
        <path d="M292,228.91c-4.36,3.41-6.06.5-15.9,3-5.36,1.37-9.34,7-9.76,12.49s2.88,11.45,8.21,12.9c3.44.94,7.08,0,10.64-.24s7.7.63,9.38,3.78c2.35,4.42-1.71,9.86-4.53,13.29a12,12,0,0,0-2.49,4.83c-1.87,8,6.17,10.34,11.53,8.2,4.07-1.63,7.13-5,10.57-7.73s7.94-4.9,12.1-3.53c4.48,1.49,6.7,6.34,9.18,10.35s7.06,8,11.42,6.16c3.27-1.35,4.57-5.3,4.81-8.83s-.16-7.23,1.3-10.45c1.83-4,5.88-6.09,10.34-7.21a5.84,5.84,0,0,0,2-10.39l-.09-.07c-3.07-2.12-6.68-3.39-9.61-5.7s-5.14-6.23-3.82-9.72c1.56-4.14,7.32-5.82,6.83-11.1a7.51,7.51,0,0,0-5.28-6.32c-6.37-2-12,1.37-17.68,3.53-4.62,1.75-10.32,2.54-14.09-.66-4.24-3.6-3.93-10.42-7.42-14.75a10.12,10.12,0,0,0-16.58,11.52A4.57,4.57,0,0,1,292,228.91Z" style="fill: rgb(235, 235, 235); transform-origin: 314.758px 249.92px;" id="elw99rh5auwym" class="animable"></path>
        <g id="elj9d8977v7dm">
            <circle cx="277.8" cy="194.24" r="7.49" style="fill: rgb(235, 235, 235); transform-origin: 277.8px 194.24px; transform: rotate(-22.39deg);" class="animable"></circle>
        </g>
        <g id="el61b13k0otd">
            <rect x="338.66" y="161.47" width="7.23" height="27.96" style="fill: rgb(235, 235, 235); transform-origin: 342.275px 175.45px; transform: rotate(7.26deg);" class="animable"></rect>
        </g>
        <g id="el69utngpzje8">
            <rect x="322.53" y="288.17" width="7.23" height="27.96" style="fill: rgb(235, 235, 235); transform-origin: 326.145px 302.15px; transform: rotate(7.26deg);" class="animable"></rect>
        </g>
        <g id="el278pfrblysg">
            <rect x="278.27" y="197.79" width="215.63" height="103.7" rx="22.23" style="fill: rgb(245, 245, 245); transform-origin: 386.085px 249.64px; transform: rotate(-82.5191deg);" class="animable"></rect>
        </g>
        <path d="M401.85,360.33s.52,0,1.54.09a13,13,0,0,0,1.91,0c.38,0,.79,0,1.22-.06l1.4-.18a22.27,22.27,0,0,0,7-2.29,22.6,22.6,0,0,0,7.56-6.49,23,23,0,0,0,4.31-11.66q.86-6.88,1.87-14.92c1.36-10.71,2.9-22.9,4.6-36.37,3.41-27,7.48-59,12-94.67q.86-6.69,1.72-13.53.44-3.42.87-6.88a29.83,29.83,0,0,0,.34-6.93,21.5,21.5,0,0,0-1.75-6.75,21,21,0,0,0-3.81-5.92,22.37,22.37,0,0,0-5.55-4.45,21.16,21.16,0,0,0-6.75-2.43c-1.18-.24-2.4-.37-3.62-.53l-3.66-.46-7.36-.94-14.9-1.9-30.45-3.87a22,22,0,0,0-23.66,14.95,37.79,37.79,0,0,0-1.35,7.35c-.32,2.49-.63,5-.95,7.43q-.93,7.4-1.87,14.67c-2.47,19.39-4.86,38.09-7.13,55.91s-4.44,34.74-6.47,50.58Q327.37,302,326,313q-.72,5.52-1.39,10.81c-.2,1.76-.5,3.51-.62,5.22,0,.43-.07.86-.09,1.29l0,1.28a17.89,17.89,0,0,0,.23,2.53,22.15,22.15,0,0,0,10.32,15.48,21.67,21.67,0,0,0,8.27,3c2.85.41,5.62.74,8.3,1.09l27.45,3.54,17.34,2.26,4.51.6,1.54.22-1.54-.17-4.52-.55-17.36-2.16L351,354c-2.68-.35-5.45-.67-8.31-1.07a22.08,22.08,0,0,1-8.39-3,22.52,22.52,0,0,1-10.52-15.72,20,20,0,0,1-.24-2.57l0-1.3c0-.44.06-.87.09-1.31.11-1.75.41-3.47.61-5.24q.66-5.3,1.37-10.81,1.4-11,2.9-22.93l6.42-50.6c2.27-17.81,4.64-36.52,7.11-55.91.61-4.85,1.24-9.74,1.86-14.67.32-2.46.63-4.94,1-7.42.17-1.24.29-2.49.5-3.74l.34-1.87.52-1.84a22.5,22.5,0,0,1,24.23-15.31l30.44,3.88,14.91,1.9,7.36.94,3.66.47c1.21.16,2.43.28,3.64.53a21.9,21.9,0,0,1,6.91,2.48,23.25,23.25,0,0,1,5.68,4.56,21.78,21.78,0,0,1,3.89,6.06,22.17,22.17,0,0,1,1.79,6.91,30.5,30.5,0,0,1-.35,7c-.29,2.31-.59,4.6-.88,6.88-.58,4.57-1.16,9.07-1.72,13.53l-12.12,94.65c-1.73,13.47-3.29,25.66-4.67,36.37L427,339.79a23.22,23.22,0,0,1-4.38,11.75,22.89,22.89,0,0,1-7.66,6.51,22.1,22.1,0,0,1-7,2.25l-1.4.17c-.44,0-.85,0-1.23,0a14.16,14.16,0,0,1-1.91,0Z" style="fill: rgb(38, 50, 56); transform-origin: 386.187px 249.506px;" id="el9q66qhq1fk4" class="animable"></path>
        <path d="M383.52,167.08a11.8,11.8,0,1,1-10.22-13.2A11.79,11.79,0,0,1,383.52,167.08Z" style="fill: rgb(253, 51, 121); transform-origin: 371.815px 165.586px;" id="elnw6745z0qb" class="animable"></path>
        <g id="elx07y9el274">
            <circle cx="366.66" cy="206.05" r="11.81" style="fill: rgb(69, 90, 100); transform-origin: 366.66px 206.05px; transform: rotate(-79.55deg);" class="animable"></circle>
        </g>
        <g id="elbmj16tbqlot">
            <circle cx="361.51" cy="246.51" r="11.81" style="fill: rgb(38, 50, 56); transform-origin: 361.51px 246.51px; transform: rotate(-78.14deg);" class="animable"></circle>
        </g>
        <path d="M368.06,288.46a11.8,11.8,0,1,1-10.22-13.2A11.8,11.8,0,0,1,368.06,288.46Z" style="fill: rgb(224, 224, 224); transform-origin: 356.355px 286.966px;" id="el7cquw9tce9v" class="animable"></path>
        <path d="M362.91,328.92a11.8,11.8,0,1,1-10.22-13.2A11.8,11.8,0,0,1,362.91,328.92Z" style="fill: rgb(253, 51, 121); transform-origin: 351.205px 327.426px;" id="el6jk36f655sg" class="animable"></path>
        <path d="M432.5,173.32a11.8,11.8,0,1,1-10.22-13.2A11.8,11.8,0,0,1,432.5,173.32Z" style="fill: rgb(253, 51, 121); transform-origin: 420.795px 171.826px;" id="elw5x5d4exq2" class="animable"></path>
        <g id="elp6t77f82tie">
            <circle cx="415.64" cy="212.29" r="11.81" style="fill: rgb(253, 51, 121); transform-origin: 415.64px 212.29px; transform: rotate(-29.6deg);" class="animable"></circle>
        </g>
        <g id="eldbin4r1l0eb">
            <circle cx="410.48" cy="252.75" r="11.81" style="fill: rgb(253, 51, 121); transform-origin: 410.48px 252.75px; transform: rotate(-71.11deg);" class="animable"></circle>
        </g>
        <path d="M417,294.7a11.81,11.81,0,1,1-10.22-13.21A11.8,11.8,0,0,1,417,294.7Z" style="fill: rgb(253, 51, 121); transform-origin: 405.286px 293.205px;" id="el7jyh3hrs9an" class="animable"></path>
        <g id="el2wjppx2b2cv">
            <circle cx="400.18" cy="333.67" r="11.81" style="fill: rgb(253, 51, 121); transform-origin: 400.18px 333.67px; transform: rotate(-75.5476deg);" class="animable"></circle>
        </g>
        <path d="M373.66,342.19h0a3.21,3.21,0,0,1-2.78-3.6l22.78-178.87a3.22,3.22,0,0,1,3.6-2.79h0a3.23,3.23,0,0,1,2.79,3.6L377.26,339.4A3.21,3.21,0,0,1,373.66,342.19Z" style="fill: rgb(224, 224, 224); transform-origin: 385.464px 249.561px;" id="elsuqg4rp6hxn" class="animable"></path>
        <path d="M373.66,342.19a4.27,4.27,0,0,0,1-.05,3.2,3.2,0,0,0,2.21-1.64,5.28,5.28,0,0,0,.47-2c.09-.77.2-1.62.31-2.54q.35-2.78.79-6.36c1.2-9.57,2.93-23.41,5.07-40.49s4.74-37.46,7.59-60c1.44-11.3,2.94-23.17,4.5-35.46q1.19-9.23,2.39-18.76.6-4.76,1.22-9.59c.2-1.61.4-3.22.61-4.83a3,3,0,0,0-5.86-.77c-.21,1.62-.41,3.23-.62,4.84q-.61,4.83-1.22,9.59-1.23,9.53-2.4,18.76c-1.57,12.3-3.09,24.16-4.53,35.46-2.9,22.6-5.51,42.95-7.7,60s-4,30.91-5.24,40.47q-.47,3.59-.83,6.35c-.13.92-.24,1.77-.34,2.55a5.33,5.33,0,0,0-.06,2.09,3.24,3.24,0,0,0,1.73,2.14,4.74,4.74,0,0,0,.93.29,2.53,2.53,0,0,1-1-.25,3.21,3.21,0,0,1-1.81-2.16,5.29,5.29,0,0,1,0-2.13c.1-.78.2-1.63.31-2.55q.35-2.76.79-6.35c1.2-9.57,2.93-23.4,5.07-40.49s4.74-37.46,7.59-60.06c1.44-11.3,2.94-23.16,4.51-35.46q1.17-9.23,2.38-18.76c.41-3.18.81-6.38,1.22-9.6l.63-4.85a3.44,3.44,0,0,1,1.36-2.21,3.56,3.56,0,0,1,2.51-.65,3.51,3.51,0,0,1,3,3.75c-.21,1.62-.41,3.24-.62,4.86-.41,3.22-.81,6.41-1.22,9.59q-1.22,9.52-2.39,18.75c-1.57,12.3-3.09,24.16-4.53,35.46-2.9,22.59-5.51,42.94-7.7,60l-5.24,40.48c-.32,2.38-.59,4.5-.84,6.35-.12.91-.23,1.76-.33,2.54a5.39,5.39,0,0,1-.5,2.07,3.25,3.25,0,0,1-2.3,1.64A2.78,2.78,0,0,1,373.66,342.19Z" style="fill: rgb(38, 50, 56); transform-origin: 385.506px 249.467px;" id="el9wz7bubnw7q" class="animable"></path>
        <path d="M323.29,332.31c-.15,0,4.62-38.33,10.63-85.57s11-85.53,11.16-85.51-4.62,38.32-10.64,85.58S323.43,332.33,323.29,332.31Z" style="fill: rgb(38, 50, 56); transform-origin: 334.185px 246.77px;" id="elqgyqmaq13ng" class="animable"></path>
        <g id="el2n11vzkmvs8">
            <g style="opacity: 0.4; transform-origin: 351.205px 327.426px;" class="animable">
                <path d="M362.91,328.92a11.8,11.8,0,1,1-10.22-13.2A11.8,11.8,0,0,1,362.91,328.92Z" style="fill: rgb(255, 255, 255); transform-origin: 351.205px 327.426px;" id="elnlg09iutigs" class="animable"></path>
            </g>
        </g>
        <g id="el59f3sjh6hdl">
            <g style="opacity: 0.8; transform-origin: 420.795px 171.826px;" class="animable">
                <path d="M432.5,173.32a11.8,11.8,0,1,1-10.22-13.2A11.8,11.8,0,0,1,432.5,173.32Z" id="elbh87sit2e3w" class="animable" style="transform-origin: 420.795px 171.826px;"></path>
            </g>
        </g>
        <g id="elf6jcba9db">
            <g style="opacity: 0.5; transform-origin: 415.64px 212.29px;" class="animable">
                <g id="el1rzh67bv7hz">
                    <circle cx="415.64" cy="212.29" r="11.81" class="animable" style="transform-origin: 415.64px 212.29px; transform: rotate(-29.6deg);"></circle>
                </g>
            </g>
        </g>
        <g id="el52blyibe7m2">
            <g style="opacity: 0.4; transform-origin: 410.48px 252.75px;" class="animable">
                <g id="elb5y4mbdl14">
                    <circle cx="410.48" cy="252.75" r="11.81" class="animable" style="transform-origin: 410.48px 252.75px; transform: rotate(-71.11deg);"></circle>
                </g>
            </g>
        </g>
        <g id="elk66xoaabaed">
            <g style="opacity: 0.3; transform-origin: 405.286px 293.205px;" class="animable">
                <path d="M417,294.7a11.81,11.81,0,1,1-10.22-13.21A11.8,11.8,0,0,1,417,294.7Z" id="el36iby5vw7ef" class="animable" style="transform-origin: 405.286px 293.205px;"></path>
            </g>
        </g>
        <g id="eljdg6p03o43">
            <g style="opacity: 0.2; transform-origin: 400.18px 333.67px;" class="animable">
                <g id="elsenupz8ooti">
                    <circle cx="400.18" cy="333.67" r="11.81" class="animable" style="transform-origin: 400.18px 333.67px; transform: rotate(-75.5476deg);"></circle>
                </g>
            </g>
        </g>
        <path d="M294,350.33s.52,0,1.54.09a11.91,11.91,0,0,0,1.91,0c.38,0,.79,0,1.22-.05l1.4-.18a22.27,22.27,0,0,0,7-2.29,22.72,22.72,0,0,0,7.57-6.49,23.09,23.09,0,0,0,4.3-11.66q.86-6.88,1.87-14.92c1.36-10.71,2.9-22.9,4.6-36.38,3.42-26.95,7.48-59,12-94.67q.85-6.67,1.72-13.52.43-3.42.87-6.88a29.83,29.83,0,0,0,.34-6.93,21.5,21.5,0,0,0-1.75-6.75,21.15,21.15,0,0,0-3.81-5.93,22.83,22.83,0,0,0-5.55-4.45,21.38,21.38,0,0,0-6.75-2.42c-1.18-.24-2.4-.37-3.62-.53l-3.66-.46-7.36-.94-14.9-1.9-30.45-3.87a22,22,0,0,0-23.66,14.94,38,38,0,0,0-1.35,7.36c-.32,2.49-.63,5-1,7.43q-.93,7.4-1.87,14.66c-2.47,19.39-4.86,38.1-7.13,55.91S223,264.26,221,280.1Q219.47,292,218.05,303c-.48,3.67-.94,7.28-1.39,10.8-.2,1.76-.5,3.51-.61,5.23,0,.43-.08.86-.09,1.29l0,1.28a17.62,17.62,0,0,0,.23,2.52,22.17,22.17,0,0,0,10.32,15.49,21.84,21.84,0,0,0,8.27,3c2.85.41,5.62.73,8.3,1.09l27.45,3.54,17.34,2.26,4.51.6,1.54.22-1.54-.17-4.52-.55-17.36-2.16L243.07,344c-2.68-.35-5.45-.67-8.31-1.07a22.1,22.1,0,0,1-8.39-3,22.48,22.48,0,0,1-10.52-15.71,21.91,21.91,0,0,1-.24-2.57l0-1.3c0-.44.06-.87.09-1.31.11-1.75.41-3.48.61-5.25.45-3.52.9-7.13,1.37-10.8q1.4-11,2.9-22.93l6.42-50.6c2.27-17.82,4.64-36.52,7.11-55.91q.93-7.28,1.86-14.67c.32-2.46.63-4.94.95-7.42.17-1.25.29-2.49.5-3.74l.34-1.88.53-1.84a22.49,22.49,0,0,1,24.22-15.3l30.44,3.88,14.91,1.9,7.36.94,3.66.46c1.21.16,2.43.29,3.64.53a22.17,22.17,0,0,1,6.91,2.49,23.25,23.25,0,0,1,5.68,4.56,21.78,21.78,0,0,1,3.89,6.06,22.18,22.18,0,0,1,1.79,6.9,30.58,30.58,0,0,1-.35,7c-.29,2.31-.59,4.6-.88,6.88q-.87,6.84-1.72,13.53l-12.12,94.65C324,292,322.4,304.17,321,314.87q-1,8-1.92,14.92a23.25,23.25,0,0,1-4.38,11.75,22.89,22.89,0,0,1-7.66,6.51,22.1,22.1,0,0,1-7,2.25l-1.4.17c-.44,0-.85,0-1.23,0a11.47,11.47,0,0,1-1.91,0C294.47,350.39,294,350.33,294,350.33Z" style="fill: rgb(38, 50, 56); transform-origin: 278.232px 239.514px;" id="eltlvi4sx0kvh" class="animable"></path>
        <path d="M256.31,245.61c-.11-.1,13.73-15.24,30.89-33.82s31.17-33.56,31.28-33.46-13.73,15.23-30.9,33.82S256.41,245.71,256.31,245.61Z" style="fill: rgb(38, 50, 56); transform-origin: 287.395px 211.97px;" id="ela7563ruy205" class="animable"></path>
        <path d="M236.19,276.77c-.1-.1,13.73-15.24,30.9-33.82s31.17-33.56,31.27-33.46-13.72,15.23-30.89,33.82S236.3,276.87,236.19,276.77Z" style="fill: rgb(38, 50, 56); transform-origin: 267.275px 243.13px;" id="el015j40foi9ywj" class="animable"></path>
        <path d="M228.67,263.82c-.14,0,2.75-23.65,6.46-52.77s6.83-52.74,7-52.72-2.75,23.64-6.46,52.78S228.81,263.84,228.67,263.82Z" style="fill: rgb(255, 255, 255); transform-origin: 235.401px 211.075px;" id="el4o72qn7e7ic" class="animable"></path>
        <path d="M248.32,138.92c.05.07-.54.45-1.35,1.21a11.62,11.62,0,0,0-2.53,3.47,11.84,11.84,0,0,0-1.09,4.16c-.08,1.11,0,1.81-.08,1.82a4.09,4.09,0,0,1-.29-1.83,10.28,10.28,0,0,1,3.74-7.9A4.32,4.32,0,0,1,248.32,138.92Z" style="fill: rgb(255, 255, 255); transform-origin: 245.646px 144.25px;" id="el27d38sw9e0c" class="animable"></path>
    </g>
    <g id="freepik--palette-2--inject-222" class="animable" style="transform-origin: 174.34px 345.161px;">
        <g id="elaby2kdbufor">
            <rect x="65.61" y="262.39" width="77.89" height="94.72" style="fill: rgb(245, 245, 245); transform-origin: 104.555px 309.75px; transform: rotate(-20.55deg);" class="animable"></rect>
        </g>
        <g id="elm4txq0zjv9s">
            <rect x="61.36" y="263.16" width="77.89" height="70.48" style="fill: rgb(224, 224, 224); transform-origin: 100.305px 298.4px; transform: rotate(-20.55deg);" class="animable"></rect>
        </g>
        <path d="M125.1,335.23c.05.14-9.34,3.78-21,8.14S83,351.16,83,351s9.34-3.78,21-8.14S125.05,335.1,125.1,335.23Z" style="fill: rgb(38, 50, 56); transform-origin: 104.05px 343.116px;" id="eldb9o9optgom" class="animable"></path>
        <path d="M103,348.7a92.82,92.82,0,0,1-9.07,3.67,89.08,89.08,0,0,1-9.24,3.19,91.94,91.94,0,0,1,9.06-3.67A89.66,89.66,0,0,1,103,348.7Z" style="fill: rgb(38, 50, 56); transform-origin: 93.845px 352.13px;" id="elv6n8tr8ie8a" class="animable"></path>
        <path d="M157.64,340.42l-.17-.42-.48-1.24-1.83-4.8c-1.59-4.2-3.91-10.34-6.86-18.12-5.86-15.56-14.2-37.68-24.12-64l.29.14L51.56,279.31h0l.15-.34c12.28,32.8,23.7,63.31,33.2,88.71l-.28-.13,52.93-19.72,14.81-5.49,3.91-1.44,1.36-.49-1.3.52-3.85,1.47L137.77,348l-53,20-.21.07-.07-.2L51.22,279.16l-.09-.24.24-.09h0l72.93-27.31.22-.09.08.22c9.86,26.43,18.14,48.64,24,64.25L155.3,334c.76,2.08,1.35,3.68,1.76,4.77.19.53.34.94.44,1.23S157.64,340.42,157.64,340.42Z" style="fill: rgb(38, 50, 56); transform-origin: 104.385px 309.75px;" id="el92ohvd16qhg" class="animable"></path>
        <g id="elm7de9jz4ph8">
            <rect x="214.6" y="340.52" width="77.19" height="93.87" style="fill: rgb(245, 245, 245); transform-origin: 253.195px 387.455px; transform: rotate(7.26deg);" class="animable"></rect>
        </g>
        <g id="elaqsrwpuujt">
            <rect x="216.12" y="340.61" width="77.19" height="69.85" style="fill: rgb(69, 90, 100); transform-origin: 254.715px 375.535px; transform: rotate(7.26deg);" class="animable"></rect>
        </g>
        <path d="M259.42,419.29c0,.14-9.94-1-22.15-2.56s-22.1-2.93-22.08-3.07,9.93,1,22.15,2.55S259.44,419.15,259.42,419.29Z" style="fill: rgb(38, 50, 56); transform-origin: 237.305px 416.475px;" id="elq45nja7zov" class="animable"></path>
        <path d="M233.8,420.86a88.94,88.94,0,0,1-9.64-1,92.74,92.74,0,0,1-9.58-1.48,85.79,85.79,0,0,1,9.64,1A92.74,92.74,0,0,1,233.8,420.86Z" style="fill: rgb(38, 50, 56); transform-origin: 224.19px 419.62px;" id="el1m4256ny5xw" class="animable"></path>
        <path d="M285.54,438.88s0-.15,0-.45.08-.74.15-1.3c.14-1.16.35-2.86.62-5.06.55-4.42,1.35-10.87,2.36-19.05,2.06-16.35,5-39.6,8.45-67.28l.2.26-76.56-9.72h0l.3-.22c-4.41,34.43-8.5,66.45-11.91,93.11l-.18-.25,55.51,7.19,15.52,2,4.09.55c.93.12,1.41.2,1.41.2s-.46,0-1.37-.15l-4.06-.49-15.48-1.92-55.68-7-.22,0,0-.22c3.38-26.65,7.45-58.69,11.82-93.12l0-.26.26,0h0l76.55,9.78.23,0,0,.23c-3.58,27.72-6.58,51-8.7,67.4-1.06,8.15-1.9,14.58-2.48,19-.29,2.18-.51,3.86-.66,5-.08.56-.14,1-.18,1.28S285.54,438.88,285.54,438.88Z" style="fill: rgb(38, 50, 56); transform-origin: 253.12px 387.29px;" id="elblldzg7x747" class="animable"></path>
        <g id="eldib0w4apcc">
            <rect x="114.96" y="305.81" width="77.19" height="93.87" style="fill: rgb(245, 245, 245); transform-origin: 153.555px 352.745px; transform: rotate(-7.29deg);" class="animable"></rect>
        </g>
        <g id="el96yxh87hc6n">
            <rect x="113.43" y="305.9" width="77.19" height="69.85" style="fill: rgb(38, 50, 56); transform-origin: 152.025px 340.825px; transform: rotate(-7.29deg);" class="animable"></rect>
        </g>
        <path d="M167.58,382c0,.15-9.87,1.53-22.08,3.09s-22.13,2.72-22.15,2.57,9.87-1.52,22.08-3.08S167.56,381.85,167.58,382Z" style="fill: rgb(38, 50, 56); transform-origin: 145.465px 384.83px;" id="elm0hky8o7mh8" class="animable"></path>
        <path d="M143.18,390a88,88,0,0,1-9.58,1.49,87.62,87.62,0,0,1-9.64,1,89.59,89.59,0,0,1,9.58-1.48A92.2,92.2,0,0,1,143.18,390Z" style="fill: rgb(38, 50, 56); transform-origin: 133.57px 391.245px;" id="eljtmqecswfgj" class="animable"></path>
        <path d="M197.79,394.39s0-.15-.07-.44-.1-.74-.18-1.31c-.16-1.15-.38-2.84-.68-5-.58-4.42-1.42-10.87-2.49-19-2.12-16.34-5.14-39.58-8.73-67.24l.26.2-76.55,9.82h0l.23-.29c4.39,34.43,8.48,66.46,11.87,93.11l-.24-.18,55.54-7,15.53-1.93,4.1-.5,1.42-.16s-.46.08-1.37.2l-4,.55-15.47,2-55.64,7.24-.22,0,0-.22c-3.42-26.65-7.53-58.68-12-93.1l0-.26.26,0h0l76.55-9.77.23,0,0,.23c3.5,27.73,6.45,51,8.51,67.42,1,8.16,1.82,14.59,2.37,19,.27,2.18.48,3.86.62,5,.06.55.11,1,.15,1.28S197.79,394.39,197.79,394.39Z" style="fill: rgb(38, 50, 56); transform-origin: 153.454px 352.785px;" id="elq47hnt9h5ls" class="animable"></path>
        <g id="elp76dcnf0mic">
            <rect x="170.08" y="279.84" width="77.19" height="93.87" style="fill: rgb(245, 245, 245); transform-origin: 208.675px 326.775px; transform: rotate(13.26deg);" class="animable"></rect>
        </g>
        <g id="elmu7rsdkqe3q">
            <rect x="172.83" y="280.16" width="77.19" height="69.85" style="fill: rgb(253, 51, 121); transform-origin: 211.425px 315.085px; transform: rotate(13.26deg);" class="animable"></rect>
        </g>
        <path d="M211.54,359.09c0,.14-9.78-2-21.76-4.86s-21.68-5.22-21.65-5.36,9.78,2,21.77,4.85S211.57,359,211.54,359.09Z" style="fill: rgb(38, 50, 56); transform-origin: 189.835px 353.98px;" id="elt36jgww9wim" class="animable"></path>
        <path d="M185.9,358a88.88,88.88,0,0,1-9.49-2,92.86,92.86,0,0,1-9.38-2.47,90.65,90.65,0,0,1,9.5,2A91.41,91.41,0,0,1,185.9,358Z" style="fill: rgb(38, 50, 56); transform-origin: 176.465px 355.765px;" id="elhzxibaueige" class="animable"></path>
        <path d="M235.47,381.31s0-.16.09-.45.17-.73.29-1.28c.26-1.14.65-2.8,1.14-5,1-4.34,2.48-10.68,4.34-18.71,3.76-16,9.09-38.86,15.44-66l.17.28L181.82,272.5h0l.31-.19-21.56,91.36-.17-.27,54.46,12.95L230.07,380l4,1,1.39.36-1.35-.3-4-.91-15.2-3.52-54.65-12.76-.21-.05,0-.21c6.15-26.16,13.54-57.59,21.48-91.38l.06-.25.26.06h0l75.11,17.72.23.06-.06.22c-6.46,27.2-11.88,50.06-15.69,66.12-1.92,8-3.42,14.3-4.45,18.63-.52,2.13-.92,3.78-1.19,4.9-.13.54-.23,1-.31,1.25S235.47,381.31,235.47,381.31Z" style="fill: rgb(38, 50, 56); transform-origin: 208.62px 326.67px;" id="el9ynsux6onsk" class="animable"></path>
    </g>
    <g id="freepik--pallete-1--inject-222" class="animable" style="transform-origin: 164.404px 149.578px;">
        <g id="el7n7x3x7wmsd">
            <rect x="142.67" y="109.47" width="186.5" height="61.43" rx="8.43" style="fill: rgb(250, 250, 250); transform-origin: 235.92px 140.185px; transform: rotate(-60.26deg);" class="animable"></rect>
        </g>
        <path d="M209,232.21s.37.21,1.14.5a8.37,8.37,0,0,0,8.83-1.8,12.09,12.09,0,0,0,2.13-3.07l2.13-3.75,25.52-44.83,37.89-66.46q5.35-9.37,11-19.2l5.67-9.92c.46-.83,1-1.67,1.4-2.51a8.11,8.11,0,0,0-.52-8.09,8,8,0,0,0-2-2.06c-.76-.54-1.66-1-2.51-1.5l-5.16-3-10.46-6-21.37-12.2A8.19,8.19,0,0,0,252,50.72c-2.09,3.48-4.07,7.08-6.09,10.57L234.06,82.05l-22.43,39.22-38,66.41c-1.35,2.36-2.67,4.67-4,6.91l-1.9,3.33a9.54,9.54,0,0,0-1.39,3.38,8.27,8.27,0,0,0,1.62,6.6c1.39,1.83,3.58,2.66,5.4,3.8l19.25,11,12.15,7,3.16,1.83,1.06.64s-.37-.19-1.09-.59l-3.18-1.79-12.2-6.91-19.29-11-2.87-1.63a9,9,0,0,1-2.63-2.23,8.58,8.58,0,0,1-1.71-6.85,9.93,9.93,0,0,1,1.42-3.49c.63-1.09,1.26-2.2,1.9-3.33l3.94-6.92L211.22,121l22.4-39.24L245.47,61c2-3.52,4-7.06,6.11-10.62A8.72,8.72,0,0,1,263,47.94l21.37,12.21,10.45,6L300,69.07c.85.5,1.72,1,2.56,1.54a8.3,8.3,0,0,1,2.07,2.19,8.62,8.62,0,0,1,.55,8.6c-.44.89-.95,1.69-1.42,2.53l-5.66,9.92q-5.61,9.81-11,19.19l-38,66.4-25.66,44.75-2.15,3.74a12.45,12.45,0,0,1-2.19,3.1,8.45,8.45,0,0,1-5.37,2.32,8.22,8.22,0,0,1-3.58-.59,5.87,5.87,0,0,1-.85-.4Z" style="fill: rgb(38, 50, 56); transform-origin: 235.973px 140.069px;" id="elgo0jgoxd2f5" class="animable"></path>
        <g id="elecog2oyhdib">
            <rect x="240.79" y="67.75" width="56.5" height="28.95" style="fill: rgb(253, 51, 121); transform-origin: 269.04px 82.225px; transform: rotate(29.74deg);" class="animable"></rect>
        </g>
        <g id="elhxs3uc8wj8">
            <rect x="220.45" y="103.35" width="56.5" height="28.95" style="fill: rgb(253, 51, 121); transform-origin: 248.7px 117.825px; transform: rotate(29.74deg);" class="animable"></rect>
        </g>
        <g id="elnh9sphf6688">
            <rect x="200.11" y="138.96" width="56.5" height="28.95" style="fill: rgb(253, 51, 121); transform-origin: 228.36px 153.435px; transform: rotate(29.74deg);" class="animable"></rect>
        </g>
        <g id="el5iv2okkpnux">
            <rect x="179.77" y="174.56" width="56.5" height="28.95" style="fill: rgb(253, 51, 121); transform-origin: 208.02px 189.035px; transform: rotate(29.74deg);" class="animable"></rect>
        </g>
        <g id="elql0vcui2pbj">
            <g style="opacity: 0.5; transform-origin: 269.04px 82.225px;" class="animable">
                <g id="eljy43pf0aq3">
                    <rect x="240.79" y="67.75" width="56.5" height="28.95" class="animable" style="transform-origin: 269.04px 82.225px; transform: rotate(29.74deg);"></rect>
                </g>
            </g>
        </g>
        <g id="elonqbqvoh9hd">
            <g style="opacity: 0.6; transform-origin: 248.7px 117.825px;" class="animable">
                <g id="elrk7nx6twpss">
                    <rect x="220.45" y="103.35" width="56.5" height="28.95" class="animable" style="transform-origin: 248.7px 117.825px; transform: rotate(29.74deg);"></rect>
                </g>
            </g>
        </g>
        <g id="elh3zb0grr4wn">
            <g style="opacity: 0.7; transform-origin: 228.36px 153.435px;" class="animable">
                <g id="el15xnfpioqno">
                    <rect x="200.11" y="138.96" width="56.5" height="28.95" class="animable" style="transform-origin: 228.36px 153.435px; transform: rotate(29.74deg);"></rect>
                </g>
            </g>
        </g>
        <g id="el8z4ol7zy6ig">
            <g style="opacity: 0.8; transform-origin: 208.02px 189.035px;" class="animable">
                <g id="elg6sqjnzp7wp">
                    <rect x="179.77" y="174.56" width="56.5" height="28.95" class="animable" style="transform-origin: 208.02px 189.035px; transform: rotate(29.74deg);"></rect>
                </g>
            </g>
        </g>
        <g id="el0han569uv8dp">
            <rect x="104.09" y="101.2" width="186.5" height="61.43" rx="8.94" style="fill: rgb(250, 250, 250); transform-origin: 197.34px 131.915px; transform: rotate(-80.13deg);" class="animable"></rect>
        </g>
        <path d="M202.81,227.52l.32,0a7.69,7.69,0,0,0,.92.07,8.49,8.49,0,0,0,3.54-.64,8.89,8.89,0,0,0,4.38-3.75,9.64,9.64,0,0,0,1.19-3.52c.23-1.33.47-2.75.72-4.25,2.07-12,5.06-29.32,8.75-50.74s8.12-46.92,13-75.24q1.84-10.62,3.77-21.75,1-5.55,1.95-11.23c.31-1.9.82-3.78.37-5.63a8.68,8.68,0,0,0-5.21-6.31,12.85,12.85,0,0,0-2.81-.7l-5.85-1L216,40.77l-24.2-4.2a8.7,8.7,0,0,0-9.62,5.48,15.54,15.54,0,0,0-.67,2.94c-.17,1-.35,2-.52,3L180,54q-2.07,11.94-4.09,23.5c-2.68,15.41-5.27,30.28-7.74,44.44-5,28.31-9.4,53.81-13.15,75.23-.46,2.67-.92,5.29-1.37,7.83-.22,1.28-.44,2.53-.66,3.77a10.78,10.78,0,0,0-.23,3.65,8.81,8.81,0,0,0,6.45,7.33c1.06.26,2.17.4,3.23.6l21.81,3.84L198,226.63l3.59.65,1.21.24-1.22-.19-3.59-.6-13.8-2.35-21.83-3.75c-1.07-.2-2.14-.33-3.25-.6a9.11,9.11,0,0,1-6.7-7.58,10.78,10.78,0,0,1,.22-3.75c.21-1.24.43-2.49.65-3.77.44-2.54.89-5.16,1.35-7.84,3.71-21.42,8.13-46.92,13-75.25,2.46-14.16,5-29,7.72-44.43q2-11.56,4.08-23.51l1.05-6c.17-1,.34-2,.52-3a15.79,15.79,0,0,1,.7-3,9.26,9.26,0,0,1,4-4.74,9.41,9.41,0,0,1,6.16-1.08l24.2,4.21L228,42.33l5.85,1a13,13,0,0,1,2.91.72,9.23,9.23,0,0,1,5.52,6.69,8.92,8.92,0,0,1,.11,3c-.13,1-.32,1.91-.48,2.86q-1,5.67-2,11.23Q238,78.93,236.13,89.55c-4.94,28.31-9.4,53.81-13.14,75.23s-6.8,38.73-8.91,50.71c-.26,1.5-.51,2.91-.74,4.24a9.75,9.75,0,0,1-1.24,3.57,8.94,8.94,0,0,1-4.47,3.77,8.35,8.35,0,0,1-3.58.59,7.06,7.06,0,0,1-.93-.09Z" style="fill: rgb(38, 50, 56); transform-origin: 197.403px 131.812px;" id="elh44j7sg9dq" class="animable"></path>
        <g id="elhyq351ewnp7">
            <rect x="180.53" y="51.68" width="56.5" height="28.95" style="fill: rgb(253, 51, 121); transform-origin: 208.78px 66.155px; transform: rotate(9.87deg);" class="animable"></rect>
        </g>
        <g id="el6eg7w1la63">
            <rect x="173.51" y="92.07" width="56.5" height="28.95" style="fill: rgb(253, 51, 121); transform-origin: 201.76px 106.545px; transform: rotate(9.87deg);" class="animable"></rect>
        </g>
        <g id="elpvsa77v6kji">
            <rect x="166.48" y="132.47" width="56.5" height="28.95" style="fill: rgb(253, 51, 121); transform-origin: 194.73px 146.945px; transform: rotate(9.87deg);" class="animable"></rect>
        </g>
        <g id="elrcdxdhy3og">
            <rect x="159.45" y="172.86" width="56.5" height="28.95" style="fill: rgb(253, 51, 121); transform-origin: 187.7px 187.335px; transform: rotate(9.87deg);" class="animable"></rect>
        </g>
        <g id="el9miokcc8q68">
            <g style="opacity: 0.1; transform-origin: 208.78px 66.155px;" class="animable">
                <g id="el29a7bxo7hkj">
                    <rect x="180.53" y="51.68" width="56.5" height="28.95" class="animable" style="transform-origin: 208.78px 66.155px; transform: rotate(9.87deg);"></rect>
                </g>
            </g>
        </g>
        <g id="eljowwepn7kff">
            <g style="opacity: 0.2; transform-origin: 201.76px 106.545px;" class="animable">
                <g id="elug9ghpin8">
                    <rect x="173.51" y="92.07" width="56.5" height="28.95" class="animable" style="transform-origin: 201.76px 106.545px; transform: rotate(9.87deg);"></rect>
                </g>
            </g>
        </g>
        <g id="el1o016go04sz">
            <g style="opacity: 0.3; transform-origin: 194.73px 146.945px;" class="animable">
                <g id="elmxumggjc4km">
                    <rect x="166.48" y="132.47" width="56.5" height="28.95" class="animable" style="transform-origin: 194.73px 146.945px; transform: rotate(9.87deg);"></rect>
                </g>
            </g>
        </g>
        <g id="el1jcyujb8k75">
            <g style="opacity: 0.4; transform-origin: 187.7px 187.335px;" class="animable">
                <g id="el03csfq5izze">
                    <rect x="159.45" y="172.86" width="56.5" height="28.95" class="animable" style="transform-origin: 187.7px 187.335px; transform: rotate(9.87deg);"></rect>
                </g>
            </g>
        </g>
        <path d="M204.91,223.36l-41.76,10A9.24,9.24,0,0,1,152,226.57L112.76,63.19a9.24,9.24,0,0,1,6.82-11.14l41.77-10a9.24,9.24,0,0,1,11.14,6.82l39.25,163.39A9.23,9.23,0,0,1,204.91,223.36Z" style="fill: rgb(250, 250, 250); transform-origin: 162.246px 137.707px;" id="el8xvoxz1ju67" class="animable"></path>
        <path d="M204.91,223.36l.3-.1a6.06,6.06,0,0,0,.87-.3,8.64,8.64,0,0,0,3-2,9.21,9.21,0,0,0,2.69-5.11c.5-2.33-.52-4.94-1.17-7.89-2.86-11.81-7-28.89-12.09-50s-11.15-46.25-17.87-74.16L175.5,62.42q-1.32-5.47-2.66-11.07c-.48-1.86-.75-3.79-1.86-5.33a9,9,0,0,0-4.38-3.45,9.2,9.2,0,0,0-5.64-.19l-5.77,1.38-11.68,2.81L119.66,52.3a9,9,0,0,0-5,3.2,8.94,8.94,0,0,0-1.91,5.55,12,12,0,0,0,.45,3c.24,1,.48,2,.72,3q.7,3,1.41,5.91,2.84,11.78,5.57,23.17c3.64,15.2,7.16,29.85,10.51,43.82,6.68,27.92,12.7,53.07,17.76,74.19.63,2.64,1.25,5.21,1.85,7.73.3,1.25.59,2.49.89,3.72a11.08,11.08,0,0,0,1.21,3.44,9,9,0,0,0,5.38,4.2,8.88,8.88,0,0,0,3.31.3,26.28,26.28,0,0,0,3.2-.65l21.52-5.13,13.61-3.22,3.54-.82c.8-.19,1.21-.27,1.21-.27s-.4.12-1.19.32l-3.53.87-13.59,3.32-21.5,5.21a25.09,25.09,0,0,1-3.24.67,9.23,9.23,0,0,1-3.42-.3,9.39,9.39,0,0,1-5.59-4.33,11.87,11.87,0,0,1-1.26-3.54c-.29-1.22-.59-2.46-.89-3.71q-.91-3.76-1.87-7.73C143.74,193,137.69,167.89,131,140c-3.36-14-6.88-28.62-10.54-43.81Q117.68,84.79,114.85,73q-.7-2.94-1.42-5.91c-.24-1-.47-2-.71-3a12.68,12.68,0,0,1-.47-3.08,9.48,9.48,0,0,1,7.28-9.25l23.86-5.73,11.68-2.81,5.77-1.38a9.69,9.69,0,0,1,5.93.21,9.5,9.5,0,0,1,4.63,3.65,8.87,8.87,0,0,1,1.23,2.69c.27.94.46,1.87.7,2.8q1.33,5.6,2.65,11.08,2.63,10.95,5.14,21.44l17.77,74.18c5,21.12,9.11,38.21,11.93,50l1,4.18a9.29,9.29,0,0,1-2.63,8.94A8.78,8.78,0,0,1,206.1,223,7.56,7.56,0,0,1,204.91,223.36Z" style="fill: rgb(38, 50, 56); transform-origin: 162.167px 137.675px;" id="elssl0lekmdhq" class="animable"></path>
        <g id="ell25jamdzn1b">
            <rect x="118.41" y="58.33" width="56.5" height="28.95" style="fill: rgb(253, 51, 121); transform-origin: 146.66px 72.805px; transform: rotate(-13.51deg);" class="animable"></rect>
        </g>
        <g id="elfyhckgbvko8">
            <rect x="127.99" y="98.2" width="56.5" height="28.95" style="fill: rgb(253, 51, 121); transform-origin: 156.24px 112.675px; transform: rotate(-13.51deg);" class="animable"></rect>
        </g>
        <g id="el8nbmu8q9g0b">
            <rect x="137.56" y="138.07" width="56.5" height="28.95" style="fill: rgb(253, 51, 121); transform-origin: 165.81px 152.545px; transform: rotate(-13.51deg);" class="animable"></rect>
        </g>
        <g id="elgf2n8eacoem">
            <rect x="147.14" y="177.93" width="56.5" height="28.95" style="fill: rgb(253, 51, 121); transform-origin: 175.39px 192.405px; transform: rotate(-13.51deg);" class="animable"></rect>
        </g>
        <g id="el5ozkih569af">
            <g style="opacity: 0.5; transform-origin: 146.66px 72.805px;" class="animable">
                <g id="elrs2oyguswp">
                    <rect x="118.41" y="58.33" width="56.5" height="28.95" style="fill: rgb(255, 255, 255); transform-origin: 146.66px 72.805px; transform: rotate(-13.51deg);" class="animable"></rect>
                </g>
            </g>
        </g>
        <g id="elz18de8v20k">
            <g style="opacity: 0.6; transform-origin: 156.24px 112.675px;" class="animable">
                <g id="eltg3mkcfaxcg">
                    <rect x="127.99" y="98.2" width="56.5" height="28.95" style="fill: rgb(255, 255, 255); transform-origin: 156.24px 112.675px; transform: rotate(-13.51deg);" class="animable"></rect>
                </g>
            </g>
        </g>
        <g id="elpvtszprjcqn">
            <g style="opacity: 0.7; transform-origin: 165.81px 152.545px;" class="animable">
                <g id="elwcfazh1ijzn">
                    <rect x="137.56" y="138.07" width="56.5" height="28.95" style="fill: rgb(255, 255, 255); transform-origin: 165.81px 152.545px; transform: rotate(-13.51deg);" class="animable"></rect>
                </g>
            </g>
        </g>
        <g id="elwma4rad1xg">
            <g style="opacity: 0.8; transform-origin: 175.39px 192.405px;" class="animable">
                <g id="el6afl56n0dlg">
                    <rect x="147.14" y="177.93" width="56.5" height="28.95" style="fill: rgb(255, 255, 255); transform-origin: 175.39px 192.405px; transform: rotate(-13.51deg);" class="animable"></rect>
                </g>
            </g>
        </g>
        <g id="ela9le5c3343g">
            <rect x="101.76" y="67.29" width="61.43" height="186.5" rx="8.59" style="fill: rgb(250, 250, 250); transform-origin: 132.475px 160.54px; transform: rotate(-35.6045deg);" class="animable"></rect>
        </g>
        <path d="M204.85,223.38s.35-.25.93-.83a8.29,8.29,0,0,0,2-3,8.49,8.49,0,0,0,.17-5.76,10.41,10.41,0,0,0-1.85-3.25l-2.52-3.49-30.14-41.83-44.65-62.07-12.9-17.94-6.66-9.27c-.57-.77-1.11-1.59-1.7-2.32a8.28,8.28,0,0,0-7.54-3,8.24,8.24,0,0,0-2.71.85,21.38,21.38,0,0,0-2.43,1.62L90,76.55l-9.77,7-20,14.35A8.39,8.39,0,0,0,57,102.83a8.17,8.17,0,0,0,.78,5.8,30,30,0,0,0,1.7,2.51l1.79,2.48,3.55,4.95L78.76,138l26.33,36.69,44.57,62.14,4.64,6.47c.75,1.06,1.5,2.09,2.23,3.12a9.8,9.8,0,0,0,2.48,2.68,8.47,8.47,0,0,0,6.66,1.39c2.27-.41,4-2,5.73-3.24l18-12.9,11.41-8.14,3-2.1c.67-.47,1-.7,1-.7s-.33.26-1,.74l-2.94,2.15-11.36,8.22-18,13-2.68,1.92a8.6,8.6,0,0,1-3.15,1.39,8.81,8.81,0,0,1-6.92-1.43,10.06,10.06,0,0,1-2.57-2.75L154,243.48,149.36,237,104.7,174.94C96.31,163.25,87.49,151,78.35,138.27l-13.94-19.4-3.55-4.94-1.79-2.49a28.18,28.18,0,0,1-1.74-2.57,8.73,8.73,0,0,1-.83-6.16A8.91,8.91,0,0,1,60,97.5l20-14.35,9.77-7,4.83-3.47A21.48,21.48,0,0,1,97,71a8.88,8.88,0,0,1,2.88-.91,9,9,0,0,1,5.77,1.24,8.55,8.55,0,0,1,2.23,2c.62.78,1.14,1.57,1.72,2.35l6.65,9.27,12.89,18L173.73,165l30,41.92,2.5,3.51c.4.54.77,1.07,1.11,1.62l.42.84c.11.28.23.56.32.84a8.64,8.64,0,0,1-.22,5.85,8.35,8.35,0,0,1-2.05,3,6.1,6.1,0,0,1-.71.6Z" style="fill: rgb(38, 50, 56); transform-origin: 132.378px 160.522px;" id="el5cy2aczzepc" class="animable"></path>
        <g id="elah3wgj5pt0l">
            <rect x="65.29" y="91.86" width="56.5" height="28.95" style="fill: rgb(253, 51, 121); transform-origin: 93.54px 106.335px; transform: rotate(-35.69deg);" class="animable"></rect>
        </g>
        <g id="elw8q96euyn">
            <rect x="89.21" y="125.16" width="56.5" height="28.95" style="fill: rgb(253, 51, 121); transform-origin: 117.46px 139.635px; transform: rotate(-35.69deg);" class="animable"></rect>
        </g>
        <g id="elrlvs9qyrl4">
            <rect x="113.13" y="158.46" width="56.5" height="28.95" style="fill: rgb(253, 51, 121); transform-origin: 141.38px 172.935px; transform: rotate(-35.69deg);" class="animable"></rect>
        </g>
        <g id="elqczbh1a3af">
            <rect x="137.05" y="191.76" width="56.5" height="28.95" style="fill: rgb(253, 51, 121); transform-origin: 165.3px 206.235px; transform: rotate(-35.69deg);" class="animable"></rect>
        </g>
        <g id="eldhaseh541c">
            <g style="opacity: 0.2; transform-origin: 117.46px 139.635px;" class="animable">
                <g id="elli0kp4wi42b">
                    <rect x="89.21" y="125.16" width="56.5" height="28.95" style="fill: rgb(255, 255, 255); transform-origin: 117.46px 139.635px; transform: rotate(-35.69deg);" class="animable"></rect>
                </g>
            </g>
        </g>
        <g id="el057okpsw208v">
            <g style="opacity: 0.3; transform-origin: 141.38px 172.935px;" class="animable">
                <g id="elatnv5bm34q">
                    <rect x="113.13" y="158.46" width="56.5" height="28.95" style="fill: rgb(255, 255, 255); transform-origin: 141.38px 172.935px; transform: rotate(-35.69deg);" class="animable"></rect>
                </g>
            </g>
        </g>
        <g id="eltlk8vy5beql">
            <g style="opacity: 0.4; transform-origin: 165.3px 206.235px;" class="animable">
                <g id="elkj7d4jfejs">
                    <rect x="137.05" y="191.76" width="56.5" height="28.95" style="fill: rgb(255, 255, 255); transform-origin: 165.3px 206.235px; transform: rotate(-35.69deg);" class="animable"></rect>
                </g>
            </g>
        </g>
        <g id="el4g31vihd6wc">
            <g style="opacity: 0.1; transform-origin: 93.54px 106.335px;" class="animable">
                <g id="elhslkddr8m7i">
                    <rect x="65.29" y="91.86" width="56.5" height="28.95" style="fill: rgb(255, 255, 255); transform-origin: 93.54px 106.335px; transform: rotate(-35.69deg);" class="animable"></rect>
                </g>
            </g>
        </g>
        <g id="elvgentju9qga">
            <rect x="84.45" y="95.26" width="61.43" height="186.5" rx="8.41" style="fill: rgb(250, 250, 250); transform-origin: 115.165px 188.51px; transform: rotate(-57.63deg);" class="animable"></rect>
        </g>
        <path d="M59.53,116.9c-4.17-2.69-8.91-1.38-10.85,2.44l-24.33,38.4a8.09,8.09,0,0,0,2.5,11.18l96,60.86a3.45,3.45,0,0,0,4.77-1.06l29.3-46a3.47,3.47,0,0,0-1.06-4.79Z" style="fill: rgb(253, 51, 121); transform-origin: 90.2744px 172.901px;" id="eljh59iox2lbc" class="animable"></path>
        <path d="M201.54,213a6.8,6.8,0,1,1-8.89-3.66A6.79,6.79,0,0,1,201.54,213Z" style="fill: rgb(69, 90, 100); transform-origin: 195.264px 215.616px;" id="el0rcfu1xpkvd" class="animable"></path>
        <path d="M201.54,213s-.26-.54-.91-1.39a6.84,6.84,0,0,0-3.69-2.38,6.59,6.59,0,0,0-6.1,1.56,6.44,6.44,0,0,0-1.92,3.28,6.51,6.51,0,0,0,3,7.14,6.43,6.43,0,0,0,3.68.95A6.6,6.6,0,0,0,201,219a6.72,6.72,0,0,0,.9-4.3c-.13-1.06-.39-1.61-.34-1.63a1.31,1.31,0,0,1,.2.39,5.5,5.5,0,0,1,.35,1.21,6.85,6.85,0,0,1-.79,4.52,7,7,0,0,1-2.19,2.36,7,7,0,0,1-3.51,1.16,6.9,6.9,0,0,1-4-1,7,7,0,0,1-3.21-7.7,6.9,6.9,0,0,1,2.09-3.51,7,7,0,0,1,3.3-1.68,6.91,6.91,0,0,1,3.22.11,6.78,6.78,0,0,1,3.76,2.62,5.36,5.36,0,0,1,.61,1.1C201.51,212.89,201.56,213,201.54,213Z" style="fill: rgb(38, 50, 56); transform-origin: 195.205px 215.701px;" id="el0f8ve8q5pldv" class="animable"></path>
        <path d="M206,219.37s.23-.36.55-1.11a8.26,8.26,0,0,0,.66-3.55,8.18,8.18,0,0,0-2.28-5.29,15.83,15.83,0,0,0-3-2.19l-3.65-2.3-43.66-27.58L89.87,136.41l-18.7-11.85-9.66-6.11c-.81-.5-1.63-1.07-2.44-1.52A7.85,7.85,0,0,0,49,119.3c-.55.78-1.06,1.65-1.59,2.47l-3.19,5L37.72,137l-13.18,20.8a7.89,7.89,0,0,0,2.12,10.67L37,175l20.21,12.81,38.2,24.23,64.66,41,6.73,4.28,3.24,2.06a9,9,0,0,0,3.33,1.5,8,8,0,0,0,6.6-1.55,9.11,9.11,0,0,0,2.15-2.56l1.77-2.79c4.65-7.3,8.66-13.59,11.93-18.74s5.83-9.11,7.56-11.83l2-3.07c.44-.69.68-1,.68-1s-.21.36-.64,1.06-1.09,1.74-1.93,3.1c-1.72,2.73-4.23,6.73-7.48,11.88L184.11,254.2,182.35,257a9.3,9.3,0,0,1-2.22,2.64,8.28,8.28,0,0,1-6.86,1.64,9.61,9.61,0,0,1-3.44-1.54l-3.24-2.05-6.75-4.27L95.12,212.46l-38.21-24.2L36.7,175.46l-10.34-6.58a8.4,8.4,0,0,1-2.26-11.37l13.19-20.8,6.45-10.18,3.19-5c.54-.84,1-1.67,1.61-2.5a8.22,8.22,0,0,1,2.18-2.1,8.31,8.31,0,0,1,5.75-1.33,8.61,8.61,0,0,1,2.84.92c.88.48,1.65,1,2.47,1.53l9.66,6.12L90.13,136l64.65,41,43.57,27.72c1.29.81,2.5,1.59,3.64,2.32a14.84,14.84,0,0,1,3.06,2.24,8.22,8.22,0,0,1,2.27,5.39,8,8,0,0,1-.71,3.57,5.73,5.73,0,0,1-.43.82Z" style="fill: rgb(38, 50, 56); transform-origin: 115.059px 188.489px;" id="el2olgewd7vx8" class="animable"></path>
        <path d="M139,233.23a3.74,3.74,0,0,1,1.51-6.7l.25,1.35a2.16,2.16,0,0,0-1.58,1,2.17,2.17,0,1,0,3.66,2.32,2.16,2.16,0,0,0,.23-1.87l1.32-.36a3.72,3.72,0,0,1-5.39,4.24Z" style="fill: rgb(38, 50, 56); transform-origin: 140.992px 230.103px;" id="elsfw480qzxyn" class="animable"></path>
        <path d="M142.76,227.36a3.71,3.71,0,1,1,4.94-1.26A3.52,3.52,0,0,1,142.76,227.36Zm3.11-4.92a2.12,2.12,0,1,0,.7,2.95A2.06,2.06,0,0,0,145.87,222.44Z" style="fill: rgb(38, 50, 56); transform-origin: 144.564px 224.153px;" id="eln247au67osp" class="animable"></path>
        <path d="M144.49,218.29l.84-1.32,4.64,2.94,1.82-2.87,1.08.68-2.66,4.2Z" style="fill: rgb(38, 50, 56); transform-origin: 148.68px 219.445px;" id="ell5fw0qcpamg" class="animable"></path>
        <path d="M150.19,215.62a3.71,3.71,0,1,1,4.94-1.25A3.49,3.49,0,0,1,150.19,215.62Zm3.12-4.91a2.12,2.12,0,1,0,.7,2.95A2.06,2.06,0,0,0,153.31,210.71Z" style="fill: rgb(38, 50, 56); transform-origin: 151.998px 212.422px;" id="el8cerq9sxevs" class="animable"></path>
        <path d="M160,206.54l-2.29.09,0,.07-.73,1.15,1.59,1-.84,1.32-5.72-3.62,1.57-2.48c1-1.53,2.37-2,3.65-1.17a2.21,2.21,0,0,1,1.06,2.32l2.65-.12Zm-5.43-1.7-.68,1.08,2,1.26.69-1.08c.51-.81.39-1.46-.23-1.85S155.05,204,154.53,204.84Z" style="fill: rgb(38, 50, 56); transform-origin: 156.475px 206.332px;" id="el96dcp3oz1u9" class="animable"></path>
        <path d="M151,226.89a31.46,31.46,0,0,1-2.57,5,30.26,30.26,0,0,1-3,4.73,61.29,61.29,0,0,1,5.59-9.73Z" style="fill: rgb(38, 50, 56); transform-origin: 148.225px 231.755px;" id="eltxb7h175lzj" class="animable"></path>
    </g>
    <defs>
        <filter id="active" height="200%">
            <feMorphology in="SourceAlpha" result="DILATED" operator="dilate" radius="2"></feMorphology>
            <feFlood flood-color="#32DFEC" flood-opacity="1" result="PINK"></feFlood>
            <feComposite in="PINK" in2="DILATED" operator="in" result="OUTLINE"></feComposite>
            <feMerge>
                <feMergeNode in="OUTLINE"></feMergeNode>
                <feMergeNode in="SourceGraphic"></feMergeNode>
            </feMerge>
        </filter>
        <filter id="hover" height="200%">
            <feMorphology in="SourceAlpha" result="DILATED" operator="dilate" radius="2"></feMorphology>
            <feFlood flood-color="#ff0000" flood-opacity="0.5" result="PINK"></feFlood>
            <feComposite in="PINK" in2="DILATED" operator="in" result="OUTLINE"></feComposite>
            <feMerge>
                <feMergeNode in="OUTLINE"></feMergeNode>
                <feMergeNode in="SourceGraphic"></feMergeNode>
            </feMerge>
            <feColorMatrix type="matrix" values="0   0   0   0   0                0   1   0   0   0                0   0   0   0   0                0   0   0   1   0 "></feColorMatrix>
        </filter>
    </defs>
</svg>