<svg class="animated" id="freepik_stories-image-viewer"
    xmlns="http://www.w3.org/2000/svg" viewBox="0 0 500 500" version="1.1"
    xmlns:xlink="http://www.w3.org/1999/xlink"
    xmlns:svgjs="http://svgjs.com/svgjs">
    <style>svg#freepik_stories-image-viewer:not(.animated) .animable {opacity: 0;}svg#freepik_stories-image-viewer.animated #freepik--Screens--inject-11 {animation: 1s 1 forwards cubic-bezier(.36,-0.01,.5,1.38) slideRight,1.5s Infinite  linear wind;animation-delay: 0s,1s;}svg#freepik_stories-image-viewer.animated #freepik--Character--inject-11 {animation: 1s 1 forwards cubic-bezier(.36,-0.01,.5,1.38) lightSpeedRight,1.5s Infinite  linear wind;animation-delay: 0s,1s;}            @keyframes slideRight {                0% {                    opacity: 0;                    transform: translateX(30px);                }                100% {                    opacity: 1;                    transform: translateX(0);                }            }                    @keyframes wind {                0% {                    transform: rotate( 0deg );                }                25% {                    transform: rotate( 1deg );                }                75% {                    transform: rotate( -1deg );                }            }                    @keyframes lightSpeedRight {              from {                transform: translate3d(50%, 0, 0) skewX(-20deg);                opacity: 0;              }              60% {                transform: skewX(10deg);                opacity: 1;              }              80% {                transform: skewX(-2deg);              }              to {                opacity: 1;                transform: translate3d(0, 0, 0);              }            }        </style>
    <g id="freepik--background-complete--inject-11" class="animable" style="transform-origin: 256.09px 381.562px;">
        <polygon points="426.68 441.81 411.88 485.15 453.58 485.15 436.79 441.5 441.08 419.63 420.96 419.63 426.68 441.81" style="fill: rgb(235, 235, 235); transform-origin: 432.73px 452.39px;" id="el28bf3y347fz" class="animable"></polygon>
        <path d="M458.57,390.7s0,.06-.12.16l-.4.42-1.56,1.59c-.35.34-.72.72-1.14,1.14s-.82.91-1.28,1.42c-.9,1-2,2.15-3,3.52-.55.68-1.11,1.38-1.71,2.11s-1.13,1.56-1.73,2.37c-1.23,1.62-2.38,3.47-3.62,5.38A103.11,103.11,0,0,0,437.18,422a106,106,0,0,0-4.68,14.09c-.51,2.22-1,4.33-1.34,6.33-.18,1-.38,2-.51,2.9s-.23,1.83-.35,2.69c-.26,1.7-.33,3.27-.46,4.63,0,.69-.11,1.32-.15,1.91s0,1.12-.06,1.61c0,.94-.07,1.68-.09,2.22,0,.23,0,.43,0,.58a.55.55,0,0,1,0,.2.8.8,0,0,1,0-.2c0-.16,0-.35,0-.58,0-.54,0-1.29,0-2.23,0-.49,0-1,0-1.61s.07-1.23.11-1.91c.1-1.37.16-2.94.4-4.66.1-.86.21-1.76.32-2.7s.32-1.9.48-2.91c.3-2,.81-4.13,1.32-6.37a102.8,102.8,0,0,1,4.66-14.16,100,100,0,0,1,6.85-13.22c1.26-1.92,2.42-3.76,3.67-5.38.61-.81,1.16-1.63,1.76-2.36l1.73-2.1c1.07-1.36,2.18-2.48,3.1-3.5.47-.5.9-1,1.31-1.4l1.17-1.11,1.62-1.53.43-.39A1.12,1.12,0,0,1,458.57,390.7Z" style="fill: rgb(235, 235, 235); transform-origin: 444.052px 424.93px;" id="elk7frzlic7ys" class="animable"></path>
        <path d="M470.74,411.3a8.1,8.1,0,0,1-1.34-.27c-.42-.11-.94-.23-1.55-.33s-1.3-.26-2.08-.33-1.62-.19-2.54-.22-1.89,0-2.92,0a37.07,37.07,0,0,0-6.63.85,38.44,38.44,0,0,0-6.35,2.09c-.93.44-1.83.84-2.62,1.3s-1.53.88-2.19,1.3-1.22.84-1.73,1.19a15.4,15.4,0,0,0-1.26,1,8.16,8.16,0,0,1-1.09.82,8.37,8.37,0,0,1,1-.95,13.48,13.48,0,0,1,1.22-1c.5-.38,1-.84,1.71-1.26a22.56,22.56,0,0,1,2.19-1.35,28,28,0,0,1,2.63-1.35,36.75,36.75,0,0,1,6.41-2.16,36.07,36.07,0,0,1,6.72-.82c1,0,2,0,3,.08a22.86,22.86,0,0,1,2.55.28c.79.09,1.48.27,2.09.39a12.54,12.54,0,0,1,1.55.41A9.33,9.33,0,0,1,470.74,411.3Z" style="fill: rgb(235, 235, 235); transform-origin: 454.59px 414.255px;" id="elm82sx4p557" class="animable"></path>
        <path d="M449.73,378.06a7.21,7.21,0,0,1-.47,1.26c-.33.8-.8,2-1.34,3.41a86,86,0,0,0-3.4,11.57,84.18,84.18,0,0,0-1.67,11.94c-.11,1.54-.17,2.8-.19,3.66a8.05,8.05,0,0,1-.09,1.34,7.45,7.45,0,0,1-.08-1.34c0-.87,0-2.12.05-3.67a73.06,73.06,0,0,1,1.56-12,72,72,0,0,1,3.54-11.59c.58-1.44,1.08-2.59,1.47-3.36A7.78,7.78,0,0,1,449.73,378.06Z" style="fill: rgb(235, 235, 235); transform-origin: 446.108px 394.65px;" id="elgvyfqzyzlvt" class="animable"></path>
        <path d="M462.78,373.05a7.51,7.51,0,0,1-.73,1c-.5.64-1.2,1.59-2,2.77a71,71,0,0,0-9.9,20.27c-.42,1.39-.74,2.52-.94,3.31a7.42,7.42,0,0,1-.37,1.21,8.87,8.87,0,0,1,.21-1.25c.15-.8.42-1.95.81-3.35a62.91,62.91,0,0,1,4-10.64,63.64,63.64,0,0,1,5.9-9.73c.87-1.17,1.61-2.09,2.15-2.7A6.85,6.85,0,0,1,462.78,373.05Z" style="fill: rgb(235, 235, 235); transform-origin: 455.81px 387.33px;" id="el0hihdna34l4f" class="animable"></path>
        <path d="M480,376.82a7.59,7.59,0,0,1-1,.53c-.68.31-1.65.78-2.85,1.38a81.86,81.86,0,0,0-9,5.28,80.24,80.24,0,0,0-8.18,6.46c-1,.89-1.78,1.63-2.32,2.15a5.8,5.8,0,0,1-.87.77,5.3,5.3,0,0,1,.75-.89c.5-.55,1.26-1.33,2.23-2.26A65.41,65.41,0,0,1,476,378.45c1.21-.56,2.21-1,2.91-1.26A5.31,5.31,0,0,1,480,376.82Z" style="fill: rgb(235, 235, 235); transform-origin: 467.89px 385.105px;" id="elq41rncp2o8" class="animable"></path>
        <path d="M483.42,386.21a5.73,5.73,0,0,1-1,.73c-.68.45-1.7,1.06-3,1.77a65.6,65.6,0,0,1-10.47,4.62A66.34,66.34,0,0,1,457.82,396c-1.45.22-2.63.35-3.45.41a7.15,7.15,0,0,1-1.27.05,6.73,6.73,0,0,1,1.25-.22c.81-.11,2-.29,3.42-.54a77.82,77.82,0,0,0,11-2.82,76.53,76.53,0,0,0,10.46-4.48c1.3-.67,2.34-1.24,3-1.64A8.65,8.65,0,0,1,483.42,386.21Z" style="fill: rgb(235, 235, 235); transform-origin: 468.26px 391.339px;" id="el7ep2cjzn6wm" class="animable"></path>
        <path d="M483.78,396.83a1.46,1.46,0,0,1-.34.2l-1,.49c-.89.44-2.2,1-3.83,1.67a90.78,90.78,0,0,1-13.13,4.13,89.6,89.6,0,0,1-13.61,2.06c-1.76.13-3.19.19-4.17.19h-1.14l-.39,0a1.34,1.34,0,0,1,.39-.06l1.13-.08c1,0,2.4-.16,4.15-.32a104.6,104.6,0,0,0,13.54-2.19,103.06,103.06,0,0,0,13.12-4c1.64-.62,3-1.15,3.87-1.53l1-.42C483.64,396.85,483.77,396.81,483.78,396.83Z" style="fill: rgb(235, 235, 235); transform-origin: 464.975px 401.198px;" id="el5laj62ftk7" class="animable"></path>
        <path d="M439.22,387.84a8.29,8.29,0,0,1-.37,1.17c-.13.37-.29.83-.45,1.37s-.36,1.13-.53,1.82a43,43,0,0,0-1,4.82,46.13,46.13,0,0,0-.49,6,45.48,45.48,0,0,0,.36,6,43.55,43.55,0,0,0,.92,4.85c.15.68.35,1.29.5,1.83s.29,1,.42,1.37a8.64,8.64,0,0,1,.34,1.18,6,6,0,0,1-.5-1.12,14.35,14.35,0,0,1-.49-1.36c-.18-.53-.39-1.14-.56-1.83a37.25,37.25,0,0,1-1-4.87,44.33,44.33,0,0,1-.4-6.08,44.84,44.84,0,0,1,.53-6.08,39.62,39.62,0,0,1,1.12-4.85c.19-.68.42-1.28.6-1.81s.37-1,.52-1.35A6.33,6.33,0,0,1,439.22,387.84Z" style="fill: rgb(235, 235, 235); transform-origin: 437.595px 403.045px;" id="eljx30azvwtk" class="animable"></path>
        <path d="M402.79,355a1.2,1.2,0,0,1,.2.15l.57.46c.48.43,1.25,1,2.12,1.85a57.49,57.49,0,0,1,6.94,7.68,71.85,71.85,0,0,1,7.89,13.16,94.31,94.31,0,0,1,6.13,17.76,138.86,138.86,0,0,1,3,18.56c.55,5.76.8,10.95.94,15.32s.19,7.9.21,10.34c0,1.2,0,2.14,0,2.81,0,.3,0,.54,0,.73a2.28,2.28,0,0,1,0,.25.79.79,0,0,1,0-.25c0-.18,0-.43,0-.73,0-.67-.06-1.61-.1-2.81-.07-2.44-.17-6-.35-10.33s-.45-9.55-1-15.29a143,143,0,0,0-3-18.5,95.26,95.26,0,0,0-6.08-17.69,72.82,72.82,0,0,0-7.77-13.15,62.41,62.41,0,0,0-6.8-7.74c-.86-.87-1.6-1.45-2.07-1.9l-.53-.5Z" style="fill: rgb(235, 235, 235); transform-origin: 416.792px 399.535px;" id="elbqpxwbqg3f" class="animable"></path>
        <path d="M402.35,402s.11-.06.33-.12a9.88,9.88,0,0,1,1-.25,20.06,20.06,0,0,1,3.67-.43,21.92,21.92,0,0,1,20.09,11.64,20.15,20.15,0,0,1,1.45,3.4c.14.41.21.75.27,1s.08.34.06.34a11.94,11.94,0,0,1-.49-1.25,24.49,24.49,0,0,0-1.55-3.31,22.35,22.35,0,0,0-19.83-11.49,24.77,24.77,0,0,0-3.64.3A11.1,11.1,0,0,1,402.35,402Z" style="fill: rgb(235, 235, 235); transform-origin: 415.789px 409.384px;" id="eldzqjh3v42va" class="animable"></path>
        <path d="M395.93,387.69a1.3,1.3,0,0,1,.37-.11c.25-.05.62-.14,1.09-.21a25.43,25.43,0,0,1,4.06-.34,28.75,28.75,0,0,1,23.31,11.51A26.88,26.88,0,0,1,427,402c.23.41.38.76.49,1a1.2,1.2,0,0,1,.14.36,13.5,13.5,0,0,1-.78-1.27,32.05,32.05,0,0,0-2.29-3.33,30.14,30.14,0,0,0-27.11-11.19A12.79,12.79,0,0,1,395.93,387.69Z" style="fill: rgb(235, 235, 235); transform-origin: 411.78px 395.194px;" id="elkf39ffnw1h" class="animable"></path>
        <path d="M387,373.28a1.93,1.93,0,0,1,.4-.15c.27-.08.67-.23,1.19-.35a27.89,27.89,0,0,1,4.48-.81,31.82,31.82,0,0,1,27.11,10.43A29.43,29.43,0,0,1,423,386c.3.45.5.82.64,1.06a2.06,2.06,0,0,1,.2.39,15.75,15.75,0,0,1-1-1.35,34.28,34.28,0,0,0-2.87-3.49,32.64,32.64,0,0,0-26.85-10.34,35.78,35.78,0,0,0-4.47.67A13.65,13.65,0,0,1,387,373.28Z" style="fill: rgb(235, 235, 235); transform-origin: 405.42px 379.62px;" id="elolijus4lp8" class="animable"></path>
        <path d="M440.59,375.82a1.51,1.51,0,0,1-.24.33l-.74.86c-.33.37-.72.83-1.14,1.39s-1,1.17-1.44,1.9-1.06,1.52-1.59,2.41-1.07,1.86-1.62,2.88A42.6,42.6,0,0,0,429.39,400c-.12,1.16-.25,2.26-.27,3.3s-.05,2,0,2.88.07,1.68.11,2.38.11,1.3.18,1.79l.12,1.13a1.6,1.6,0,0,1,0,.41s0-.13-.1-.39-.13-.68-.21-1.12-.19-1.09-.25-1.8-.17-1.5-.18-2.39-.07-1.86,0-2.91.13-2.16.23-3.33a45.75,45.75,0,0,1,1.56-7.49,45.26,45.26,0,0,1,2.91-7.07c.57-1,1.09-2,1.68-2.89a27.71,27.71,0,0,1,1.65-2.4c.5-.73,1-1.33,1.49-1.87a16.37,16.37,0,0,1,1.21-1.35l.8-.81Q440.58,375.8,440.59,375.82Z" style="fill: rgb(235, 235, 235); transform-origin: 434.673px 393.854px;" id="elw2tbzwi1c8" class="animable"></path>
        <path d="M433.47,361.41c.06.06-1,1.22-2.44,3.28a41,41,0,0,0-2.33,3.76,44.51,44.51,0,0,0-2.25,4.92,41.19,41.19,0,0,0-1.54,5.18,39.15,39.15,0,0,0-.73,4.36c-.27,2.5-.24,4.07-.33,4.07a5.66,5.66,0,0,1-.07-1.1,26,26,0,0,1,.09-3,36.18,36.18,0,0,1,.64-4.42,38.91,38.91,0,0,1,1.54-5.25,39.39,39.39,0,0,1,2.3-4.95,35.11,35.11,0,0,1,2.43-3.75,27,27,0,0,1,1.91-2.32A5.53,5.53,0,0,1,433.47,361.41Z" style="fill: rgb(235, 235, 235); transform-origin: 428.621px 374.195px;" id="el1ke8336s23y" class="animable"></path>
        <path d="M418.58,345.19a7.56,7.56,0,0,1-.2,1.12c-.15.71-.36,1.74-.59,3a68.85,68.85,0,0,0-1,10.06,67.43,67.43,0,0,0,.53,10.11c.16,1.28.32,2.32.44,3a5.79,5.79,0,0,1,.13,1.12,5.83,5.83,0,0,1-.3-1.09c-.17-.71-.37-1.74-.58-3a57.22,57.22,0,0,1,.51-20.27c.27-1.28.52-2.3.73-3A5.6,5.6,0,0,1,418.58,345.19Z" style="fill: rgb(235, 235, 235); transform-origin: 417.461px 359.395px;" id="elqyr3fu8nezd" class="animable"></path>
        <rect x="28.4" y="324.41" width="212.24" height="97.88" style="fill: rgb(245, 245, 245); transform-origin: 134.52px 373.35px;" id="elml178zyalp" class="animable"></rect>
        <path d="M235.59,417.69H33.26V329.56H235.59Zm-201-1.32H234.27V330.89H34.58Z" style="fill: rgb(224, 224, 224); transform-origin: 134.425px 373.625px;" id="ela8ue7v93f8s" class="animable"></path>
        <rect x="240.64" y="324.41" width="51.85" height="97.88" style="fill: rgb(224, 224, 224); transform-origin: 266.565px 373.35px;" id="el6ux73ojgnaa" class="animable"></rect>
        <path d="M33.92,356.84h201a.27.27,0,0,0,0-.54h-201a.27.27,0,0,0,0,.54Z" style="fill: rgb(224, 224, 224); transform-origin: 134.42px 356.57px;" id="ele86rwi2td5s" class="animable"></path>
        <path d="M135.08,356.57a220.46,220.46,0,0,0,.07-26.59.27.27,0,0,0-.54,0,218.42,218.42,0,0,0,.07,26.59.2.2,0,0,0,.4,0Z" style="fill: rgb(224, 224, 224); transform-origin: 134.878px 343.24px;" id="elkoe21vh1jke" class="animable"></path>
        <path d="M189.19,343.28a2.74,2.74,0,1,1-2.74-2.74A2.74,2.74,0,0,1,189.19,343.28Z" style="fill: rgb(224, 224, 224); transform-origin: 186.45px 343.28px;" id="ele1bmyng7djk" class="animable"></path>
        <path d="M83.69,343.28A2.74,2.74,0,1,1,81,340.54,2.73,2.73,0,0,1,83.69,343.28Z" style="fill: rgb(224, 224, 224); transform-origin: 80.95px 343.28px;" id="eldqc7awnlabn" class="animable"></path>
        <path d="M137.16,373.63a2.74,2.74,0,1,1-2.74-2.74A2.73,2.73,0,0,1,137.16,373.63Z" style="fill: rgb(224, 224, 224); transform-origin: 134.42px 373.63px;" id="el6nh5vvdbcd4" class="animable"></path>
        <polygon points="53.77 422.3 42.85 483.75 48.99 483.75 69.14 422.3 53.77 422.3" style="fill: rgb(224, 224, 224); transform-origin: 55.995px 453.025px;" id="eliz5gc6e8h4c" class="animable"></polygon>
        <polygon points="225.63 422.3 234.76 483.86 228.62 483.86 210.26 422.3 225.63 422.3" style="fill: rgb(224, 224, 224); transform-origin: 222.51px 453.08px;" id="elee4bb9ijt" class="animable"></polygon>
        <polygon points="266.66 422.3 277.01 483.86 270.86 483.86 251.29 422.3 266.66 422.3" style="fill: rgb(224, 224, 224); transform-origin: 264.15px 453.08px;" id="elprj82kc2l1q" class="animable"></polygon>
        <path d="M137,401.33a2.74,2.74,0,1,1-2.74-2.74A2.74,2.74,0,0,1,137,401.33Z" style="fill: rgb(224, 224, 224); transform-origin: 134.26px 401.33px;" id="elcdoos1gxks" class="animable"></path>
        <path d="M33.92,387.15h201a.27.27,0,0,0,0-.54h-201a.27.27,0,0,0,0,.54Z" style="fill: rgb(224, 224, 224); transform-origin: 134.42px 386.88px;" id="el3820mybmcq" class="animable"></path>
        <g id="elmk9kp5fgni">
            <rect x="137.93" y="252.74" width="13.06" height="64.17" style="fill: rgb(224, 224, 224); transform-origin: 144.46px 284.825px; transform: rotate(89.4271deg);" class="animable"></rect>
        </g>
        <g id="elqk9vtl4ic9">
            <rect x="138.33" y="278.42" width="20.3" height="71.53" style="fill: rgb(245, 245, 245); transform-origin: 148.48px 314.185px; transform: rotate(89.7deg);" class="animable"></rect>
        </g>
        <path d="M170.51,324c-.19,0-.34-4.54-.34-10.15s.15-10.15.34-10.15.35,4.55.35,10.15S170.71,324,170.51,324Z" style="fill: rgb(224, 224, 224); transform-origin: 170.515px 313.85px;" id="el81ofgla8cnq" class="animable"></path>
        <path d="M173.52,324c-.19,0-.35-4.54-.35-10.15s.16-10.15.35-10.15.35,4.55.35,10.15S173.71,324,173.52,324Z" style="fill: rgb(224, 224, 224); transform-origin: 173.52px 313.85px;" id="elfsibspvobbd" class="animable"></path>
        <path d="M123.53,324c-.19,0-.35-4.54-.35-10.15s.16-10.15.35-10.15.35,4.55.35,10.15S123.72,324,123.53,324Z" style="fill: rgb(224, 224, 224); transform-origin: 123.53px 313.85px;" id="elmq18bq6r1qn" class="animable"></path>
        <path d="M126.54,324c-.2,0-.35-4.54-.35-10.15s.15-10.15.35-10.15.34,4.55.34,10.15S126.73,324,126.54,324Z" style="fill: rgb(224, 224, 224); transform-origin: 126.535px 313.85px;" id="elrac1x5zoffo" class="animable"></path>
        <path d="M133.09,314.18c0-.2,7.22-.35,16.12-.35s16.11.15,16.11.35-7.21.35-16.11.35S133.09,314.37,133.09,314.18Z" style="fill: rgb(224, 224, 224); transform-origin: 149.205px 314.18px;" id="el6lrjt20nq2" class="animable"></path>
        <g id="elzltvp8taeu">
            <rect x="160.46" y="253.3" width="13.06" height="88.26" style="fill: rgb(235, 235, 235); transform-origin: 166.99px 297.43px; transform: rotate(89.4271deg);" class="animable"></rect>
        </g>
        <path d="M198.52,302.11a4.23,4.23,0,1,1,4.17-4.23A4.19,4.19,0,0,1,198.52,302.11Z" style="fill: rgb(224, 224, 224); transform-origin: 198.46px 297.88px;" id="eldob4ynbf7ns" class="animable"></path>
        <g id="ell33klrpb98b">
            <rect x="156.2" y="268.34" width="2.61" height="59.08" style="fill: rgb(224, 224, 224); transform-origin: 157.505px 297.88px; transform: rotate(90deg);" class="animable"></rect>
        </g>
    </g>
    <g id="freepik--Plant--inject-11" class="animable" style="transform-origin: 120.375px 382.525px;">
        <path d="M161.4,285.11C151,290.5,143,299.77,137.29,310s-9.43,21.42-13.09,32.55L121,399.9c12.1-20.58,21.81-44.78,24.43-68.52l-8.05-.71c5.4-.83,9.93-4.74,12.82-9.38s4.36-10,5.81-15.25l-9.82,1.46A36.43,36.43,0,0,0,161.4,285.11Z" style="fill: rgb(69, 90, 100); transform-origin: 141.2px 342.505px;" id="ell0pms7s8lnk" class="animable"></path>
        <g id="elehbi3vfp1ik">
            <g style="opacity: 0.3; transform-origin: 141.2px 342.505px;" class="animable">
                <path d="M161.4,285.11C151,290.5,143,299.77,137.29,310s-9.43,21.42-13.09,32.55L121,399.9c12.1-20.58,21.81-44.78,24.43-68.52l-8.05-.71c5.4-.83,9.93-4.74,12.82-9.38s4.36-10,5.81-15.25l-9.82,1.46A36.43,36.43,0,0,0,161.4,285.11Z" id="eln9tscdy46ii" class="animable" style="transform-origin: 141.2px 342.505px;"></path>
            </g>
        </g>
        <path d="M119.21,413.35s-26.27-31.44-26-61.45h10.61s-11.53-7.58-10.62-11.82,1.22-20.31,1.22-20.31l9.7,2.42s-7.28-3.63-8.19-9.39,2.13-32.44,2.13-32.44,11.82,12.43,15.46,25.16,13.18,27.59,10.38,66.39S119.21,413.35,119.21,413.35Z" style="fill: rgb(69, 90, 100); transform-origin: 108.778px 346.855px;" id="el2rqlycoowdb" class="animable"></path>
        <path d="M132.52,416.31S161,397.36,167.3,373.16l-8.53-2.32s10.92-3.57,11.12-7.18,3.46-16.59,3.46-16.59l-8.33-.18s6.65-1.33,8.64-5.76,5.39-26.54,5.39-26.54-12.22,7.4-17.93,16.84-16.64,19.3-22.87,51.1S132.52,416.31,132.52,416.31Z" style="fill: rgb(69, 90, 100); transform-origin: 155.78px 365.45px;" id="elbnppopp5ce" class="animable"></path>
        <path d="M105.27,307.77a1.89,1.89,0,0,1,.1.33c0,.24.13.56.23,1,.19.89.48,2.14.83,3.73s.79,3.61,1.25,5.92,1,4.94,1.55,7.86c1.12,5.83,2.31,12.8,3.53,20.55s2.37,16.31,3.42,25.3,1.83,17.6,2.45,25.43,1,14.88,1.24,20.81c.15,3,.22,5.65.29,8s.12,4.38.14,6,0,2.92,0,3.82v1a1.3,1.3,0,0,1,0,.34,1.55,1.55,0,0,1,0-.34l0-1c0-.91-.08-2.19-.14-3.82s-.11-3.69-.22-6-.19-5-.36-8c-.28-5.93-.76-13-1.36-20.8s-1.45-16.4-2.48-25.4-2.22-17.53-3.38-25.29-2.34-14.72-3.42-20.55c-.51-2.92-1-5.56-1.47-7.87s-.83-4.31-1.17-5.94-.56-2.86-.74-3.74c-.07-.41-.13-.74-.18-1A2.12,2.12,0,0,1,105.27,307.77Z" style="fill: rgb(38, 50, 56); transform-origin: 112.791px 372.815px;" id="elurxieyi4xp" class="animable"></path>
        <path d="M115.56,432.6s-24-27.28-31.49-43.76l5.63-2.41c-4.08.68-8.27-1.08-11.43-3.74s-5.5-6.18-7.78-9.63l7.43-1.25A27.62,27.62,0,0,1,61.7,359.25c8.76,1.44,16.68,6.25,23.21,12.26A114.53,114.53,0,0,1,99,387.81a54.8,54.8,0,0,1,5.47,9C108.48,405.13,115.58,422.58,115.56,432.6Z" style="fill: rgb(69, 90, 100); transform-origin: 88.63px 395.925px;" id="el74s133vleem" class="animable"></path>
        <path d="M167.68,330.46a1.92,1.92,0,0,1-.11.28c-.1.2-.22.47-.37.79l-1.46,3c-1.29,2.62-3.11,6.43-5.32,11.15s-4.76,10.39-7.5,16.72-5.61,13.35-8.49,20.77-5.44,14.56-7.69,21.08-4.16,12.44-5.7,17.42-2.76,9-3.57,11.83l-1,3.22c-.1.35-.19.62-.26.84a1.71,1.71,0,0,1-.1.28,1.24,1.24,0,0,1,0-.3c.06-.22.13-.5.21-.85.21-.77.5-1.86.86-3.24.75-2.83,1.91-6.89,3.42-11.89s3.38-10.92,5.59-17.46,4.8-13.68,7.66-21.12,5.79-14.43,8.54-20.77,5.35-12,7.61-16.68,4.12-8.5,5.47-11.09l1.54-3c.18-.32.31-.58.42-.77A.92.92,0,0,1,167.68,330.46Z" style="fill: rgb(38, 50, 56); transform-origin: 146.89px 384.15px;" id="el5f36bslxudk" class="animable"></path>
        <path d="M117.6,444.28a1.79,1.79,0,0,1-.12-.5c-.06-.39-.14-.87-.23-1.45-.19-1.26-.5-3.07-.94-5.3s-1.06-4.87-1.84-7.77-1.81-6-3-9.28-2.57-6.27-3.87-9-2.6-5.09-3.75-7.05-2.1-3.53-2.8-4.6l-.78-1.24a2.31,2.31,0,0,1-.24-.46s.13.13.33.4l.86,1.19c.75,1,1.76,2.58,3,4.52s2.51,4.33,3.86,7,2.69,5.75,3.93,9,2.21,6.44,3,9.35,1.35,5.57,1.74,7.82.65,4.08.78,5.35c0,.58.1,1.06.14,1.46A1.53,1.53,0,0,1,117.6,444.28Z" style="fill: rgb(38, 50, 56); transform-origin: 108.851px 420.955px;" id="el96te8axafwh" class="animable"></path>
        <rect x="96.71" y="437.87" width="52.6" height="10.73" style="fill: rgb(253, 51, 121); transform-origin: 123.01px 443.235px;" id="el0h1s0062lh7i" class="animable"></rect>
        <polygon points="101.73 448.6 107.42 484.69 139.2 484.69 144.51 448.6 101.73 448.6" style="fill: rgb(253, 51, 121); transform-origin: 123.12px 466.645px;" id="elqh7hbv69sun" class="animable"></polygon>
        <path d="M146.09,448.6c0,.14-10,.26-22.22.26s-22.23-.12-22.23-.26,10-.26,22.23-.26S146.09,448.45,146.09,448.6Z" style="fill: rgb(38, 50, 56); transform-origin: 123.865px 448.6px;" id="elx5jlpcn0mii" class="animable"></path>
    </g>
    <g id="freepik--Screens--inject-11" class="animable animator-active" style="transform-origin: 247.211px 152.515px;">
        <rect x="222.87" y="91.95" width="228.16" height="173.78" style="fill: rgb(255, 255, 255); transform-origin: 336.95px 178.84px;" id="elo5waclrh1sj" class="animable"></rect>
        <rect x="222.87" y="123.15" width="71.56" height="142.58" style="fill: rgb(245, 245, 245); transform-origin: 258.65px 194.44px;" id="ely0x0u2nv8a8" class="animable"></rect>
        <path d="M244,200.89l-.15-18.22a2.75,2.75,0,0,1,.69-2.43,1.68,1.68,0,0,1,1-.36l10.25.11a1.59,1.59,0,0,1,1.48.95l1.15,2.48,13.4.15a2.43,2.43,0,0,1,2.74,2.58l-.31,15.47a3.57,3.57,0,0,1-3.37,3.17l-23.69-.25C245.58,204.53,244.22,203.08,244,200.89Z" style="fill: rgb(224, 224, 224); transform-origin: 259.18px 192.335px;" id="el6m5lt6f7wle" class="animable"></path>
        <path d="M243.62,200.62l0-15.28a2.13,2.13,0,0,1,1.9-2.08l26.87.27c1.13,0,2,1.31,1.85,2.78l.06,14.13c0,3.53-1.92,4.56-3.53,4.54l-23.54-.24C244.84,204.72,243.47,203.65,243.62,200.62Z" style="fill: rgb(235, 235, 235); transform-origin: 258.954px 194.12px;" id="el4s7diind1mu" class="animable"></path>
        <path d="M244.07,246.8l-.15-18.22a2.74,2.74,0,0,1,.69-2.43,1.61,1.61,0,0,1,1-.37l10.25.11a1.6,1.6,0,0,1,1.47,1l1.16,2.48,13.4.15a2.44,2.44,0,0,1,2.74,2.58l-.31,15.47a3.55,3.55,0,0,1-3.37,3.17l-23.69-.24C245.66,250.43,244.3,249,244.07,246.8Z" style="fill: rgb(224, 224, 224); transform-origin: 259.25px 238.26px;" id="elw2yl7ynyhqf" class="animable"></path>
        <path d="M243.71,246.52l0-15.28a2.14,2.14,0,0,1,1.9-2.08l26.87.28c1.13,0,2,1.31,1.85,2.77l.06,14.13c0,3.53-1.93,4.56-3.53,4.55l-23.54-.24C244.93,250.62,243.55,249.55,243.71,246.52Z" style="fill: rgb(235, 235, 235); transform-origin: 259.044px 240.025px;" id="eltqvr5lqog7o" class="animable"></path>
        <rect x="222.87" y="108.69" width="228.16" height="16.74" style="fill: rgb(235, 235, 235); transform-origin: 336.95px 117.06px;" id="elodvo54vituj" class="animable"></rect>
        <rect x="222.87" y="91.95" width="228.16" height="16.74" style="fill: rgb(224, 224, 224); transform-origin: 336.95px 100.32px;" id="elg9vqereumnl" class="animable"></rect>
        <path d="M233.48,98.39a1.94,1.94,0,1,1-1.93-1.93A1.94,1.94,0,0,1,233.48,98.39Z" style="fill: rgb(69, 90, 100); transform-origin: 231.54px 98.4px;" id="eltktpp13a7yc" class="animable"></path>
        <path d="M240.69,98.39a1.94,1.94,0,1,1-1.94-1.93A1.94,1.94,0,0,1,240.69,98.39Z" style="fill: rgb(69, 90, 100); transform-origin: 238.75px 98.4px;" id="el468lcsekrho" class="animable"></path>
        <path d="M248.33,98.39a1.93,1.93,0,1,1-1.93-1.93A1.93,1.93,0,0,1,248.33,98.39Z" style="fill: rgb(69, 90, 100); transform-origin: 246.4px 98.39px;" id="el82l55hi12ub" class="animable"></path>
        <path d="M451,265.46s0-1.08,0-3.15,0-5.16,0-9.18c0-8,0-19.86-.06-35,0-30.19-.07-73.54-.12-126.19l.23.24-228.15.06h0l.28-.3c0,62.12,0,121.06,0,173.49l-.26-.27,164.58.14,46.85.07,12.44,0,3.2,0H451l-1.07,0-3.18,0-12.38,0-46.79.07-164.75.14h-.25v-.28c0-52.43,0-111.37,0-173.49v-.3h.3L451,91.73h.22V92c-.05,52.72-.09,96.11-.11,126.34,0,15.08,0,26.88-.06,34.91,0,4,0,7.07,0,9.14S451,265.46,451,265.46Z" style="fill: rgb(38, 50, 56); transform-origin: 336.9px 178.545px;" id="elsygszh5y1em" class="animable"></path>
        <path d="M244.16,159.22l-.32-17.78a2.7,2.7,0,0,1,.64-2.37,1.57,1.57,0,0,1,1-.37h10a1.56,1.56,0,0,1,1.45.92l1.15,2.4,13.09,0a2.36,2.36,0,0,1,2.69,2.48l-.14,15.11a3.49,3.49,0,0,1-3.26,3.13H247.35C245.76,162.76,244.42,161.36,244.16,159.22Z" style="fill: rgb(253, 51, 121); transform-origin: 258.823px 150.72px;" id="el335lusy9n23" class="animable"></path>
        <g id="elddkq1dueos">
            <g style="opacity: 0.3; transform-origin: 258.823px 150.72px;" class="animable">
                <path d="M244.16,159.22l-.32-17.78a2.7,2.7,0,0,1,.64-2.37,1.57,1.57,0,0,1,1-.37h10a1.56,1.56,0,0,1,1.45.92l1.15,2.4,13.09,0a2.36,2.36,0,0,1,2.69,2.48l-.14,15.11a3.49,3.49,0,0,1-3.26,3.13H247.35C245.76,162.76,244.42,161.36,244.16,159.22Z" id="elo9znpszpzs" class="animable" style="transform-origin: 258.823px 150.72px;"></path>
            </g>
        </g>
        <path d="M243.9,159l-.12-14.91a2.09,2.09,0,0,1,1.84-2.05h26.22c1.11,0,2,1.26,1.84,2.69l.19,13.79c0,3.44-1.83,4.47-3.39,4.47h-23C245.14,163,243.78,161.92,243.9,159Z" style="fill: rgb(253, 51, 121); transform-origin: 258.825px 152.515px;" id="el0x6ohznvfyt" class="animable"></path>
        <path d="M294.9,171.35c0,.14-16,.26-35.83.26s-35.83-.12-35.83-.26,16-.26,35.83-.26S294.9,171.2,294.9,171.35Z" style="fill: rgb(224, 224, 224); transform-origin: 259.07px 171.35px;" id="elmj2ekf5qg3" class="animable"></path>
        <path d="M294.49,216.41c0,.14-16.05.26-35.83.26s-35.84-.12-35.84-.26,16-.26,35.84-.26S294.49,216.27,294.49,216.41Z" style="fill: rgb(224, 224, 224); transform-origin: 258.655px 216.41px;" id="elb36uw0yyuav" class="animable"></path>
        <path d="M293.88,125.82c.14,0,.26,31.32.26,70s-.12,70-.26,70-.26-31.32-.26-70S293.74,125.82,293.88,125.82Z" style="fill: rgb(224, 224, 224); transform-origin: 293.88px 195.82px;" id="el26ln2i7s59p" class="animable"></path>
        <polygon points="309.23 161.46 340.2 161.56 340.2 138.33 309.3 138.23 309.23 161.46" style="fill: rgb(253, 51, 121); transform-origin: 324.715px 149.895px;" id="elwzabtpiae1i" class="animable"></polygon>
        <g id="elzza6rtpte3">
            <g style="opacity: 0.2; transform-origin: 327.16px 145.31px;" class="animable">
                <path d="M329.59,145.32a2.43,2.43,0,1,1-2.42-2.44A2.42,2.42,0,0,1,329.59,145.32Z" id="ellrk4nv2ba" class="animable" style="transform-origin: 327.16px 145.31px;"></path>
            </g>
        </g>
        <g id="elmegdm3axa2">
            <g style="opacity: 0.2; transform-origin: 324.715px 154.31px;" class="animable">
                <polygon points="309.23 161.46 320.06 147.06 326.72 156.11 331.27 151.3 340.2 161.56 309.23 161.46" id="elvduowp8zq" class="animable" style="transform-origin: 324.715px 154.31px;"></polygon>
            </g>
        </g>
        <path d="M341.18,168.74c0,.14-6.92.26-15.46.26s-15.47-.12-15.47-.26,6.92-.26,15.47-.26S341.18,168.59,341.18,168.74Z" style="fill: rgb(38, 50, 56); transform-origin: 325.715px 168.74px;" id="el7dlebfiwwq" class="animable"></path>
        <path d="M335.39,172.24a91.29,91.29,0,0,1-9.67.26,91.41,91.41,0,0,1-9.68-.26,88.3,88.3,0,0,1,9.68-.26A88.19,88.19,0,0,1,335.39,172.24Z" style="fill: rgb(224, 224, 224); transform-origin: 325.715px 172.238px;" id="elc3elsjhc31n" class="animable"></path>
        <polygon points="359.33 161.46 390.3 161.56 390.3 138.33 359.4 138.23 359.33 161.46" style="fill: rgb(253, 51, 121); transform-origin: 374.815px 149.895px;" id="elxn2jkeio6y" class="animable"></polygon>
        <g id="elxl2t0fvgao">
            <g style="opacity: 0.2; transform-origin: 377.26px 145.32px;" class="animable">
                <path d="M379.7,145.32a2.44,2.44,0,1,1-2.43-2.44A2.43,2.43,0,0,1,379.7,145.32Z" id="eltkh0c26dbt" class="animable" style="transform-origin: 377.26px 145.32px;"></path>
            </g>
        </g>
        <g id="elfnltaybfykl">
            <g style="opacity: 0.2; transform-origin: 374.815px 154.31px;" class="animable">
                <polygon points="359.33 161.46 370.17 147.06 376.82 156.11 381.37 151.3 390.3 161.56 359.33 161.46" id="elhd4uqd42bww" class="animable" style="transform-origin: 374.815px 154.31px;"></polygon>
            </g>
        </g>
        <path d="M391.28,168.74c0,.14-6.92.26-15.46.26s-15.47-.12-15.47-.26,6.93-.26,15.47-.26S391.28,168.59,391.28,168.74Z" style="fill: rgb(38, 50, 56); transform-origin: 375.815px 168.74px;" id="el73uotevj3kw" class="animable"></path>
        <path d="M385.49,172.24a91.29,91.29,0,0,1-9.67.26,91.29,91.29,0,0,1-9.67-.26,88.19,88.19,0,0,1,9.67-.26A88.19,88.19,0,0,1,385.49,172.24Z" style="fill: rgb(224, 224, 224); transform-origin: 375.82px 172.238px;" id="el5r14hz3pntm" class="animable"></path>
        <polygon points="406.6 160.53 437.58 160.63 437.58 137.41 406.68 137.31 406.6 160.53" style="fill: rgb(253, 51, 121); transform-origin: 422.09px 148.97px;" id="elrkv52mc4xbk" class="animable"></polygon>
        <g id="elb7fmu790ces">
            <g style="opacity: 0.2; transform-origin: 424.56px 144.4px;" class="animable">
                <path d="M427,144.4a2.44,2.44,0,1,1-2.42-2.44A2.43,2.43,0,0,1,427,144.4Z" id="elu3yxxz8j7t" class="animable" style="transform-origin: 424.56px 144.4px;"></path>
            </g>
        </g>
        <g id="elvx7hq4vvj5c">
            <g style="opacity: 0.2; transform-origin: 422.09px 153.38px;" class="animable">
                <polygon points="406.6 160.53 417.44 146.13 424.1 155.19 428.65 150.37 437.58 160.63 406.6 160.53" id="elzr28w74dmr" class="animable" style="transform-origin: 422.09px 153.38px;"></polygon>
            </g>
        </g>
        <path d="M438.56,167.82c0,.14-6.93.26-15.47.26s-15.46-.12-15.46-.26,6.92-.27,15.46-.27S438.56,167.67,438.56,167.82Z" style="fill: rgb(38, 50, 56); transform-origin: 423.095px 167.815px;" id="el9t9l8yr3xqi" class="animable"></path>
        <path d="M432.76,171.31a88.19,88.19,0,0,1-9.67.26,88.19,88.19,0,0,1-9.67-.26,91.29,91.29,0,0,1,9.67-.26A91.29,91.29,0,0,1,432.76,171.31Z" style="fill: rgb(224, 224, 224); transform-origin: 423.09px 171.312px;" id="elq1gib8ebs0p" class="animable"></path>
        <polygon points="309.23 203.15 340.2 203.25 340.2 180.03 309.3 179.93 309.23 203.15" style="fill: rgb(253, 51, 121); transform-origin: 324.715px 191.59px;" id="elq6cbpc9lnc" class="animable"></polygon>
        <g id="elx01grwwsri">
            <g style="opacity: 0.2; transform-origin: 327.16px 186.99px;" class="animable">
                <path d="M329.59,187a2.43,2.43,0,1,1-2.42-2.44A2.43,2.43,0,0,1,329.59,187Z" id="el36kgx87yi5k" class="animable" style="transform-origin: 327.16px 186.99px;"></path>
            </g>
        </g>
        <g id="ellnlzgiirl1n">
            <g style="opacity: 0.2; transform-origin: 324.715px 196px;" class="animable">
                <polygon points="309.23 203.15 320.06 188.75 326.72 197.8 331.27 192.99 340.2 203.25 309.23 203.15" id="els2vxwdw1vb" class="animable" style="transform-origin: 324.715px 196px;"></polygon>
            </g>
        </g>
        <path d="M341.18,210.43c0,.14-6.92.26-15.46.26s-15.47-.12-15.47-.26,6.92-.26,15.47-.26S341.18,210.29,341.18,210.43Z" style="fill: rgb(38, 50, 56); transform-origin: 325.715px 210.43px;" id="elvbvgjnad8tl" class="animable"></path>
        <path d="M335.39,213.93a91.29,91.29,0,0,1-9.67.26,91.41,91.41,0,0,1-9.68-.26,91.41,91.41,0,0,1,9.68-.26A91.29,91.29,0,0,1,335.39,213.93Z" style="fill: rgb(224, 224, 224); transform-origin: 325.715px 213.93px;" id="elrrt2mabs13" class="animable"></path>
        <polygon points="359.33 203.15 390.3 203.25 390.3 180.03 359.4 179.93 359.33 203.15" style="fill: rgb(253, 51, 121); transform-origin: 374.815px 191.59px;" id="eltoozfi3okac" class="animable"></polygon>
        <g id="elartomlgtyf">
            <g style="opacity: 0.2; transform-origin: 377.26px 187px;" class="animable">
                <path d="M379.7,187a2.44,2.44,0,1,1-2.43-2.44A2.44,2.44,0,0,1,379.7,187Z" id="el1s8xfevkmv9" class="animable" style="transform-origin: 377.26px 187px;"></path>
            </g>
        </g>
        <g id="el3zouwpjyjp5">
            <g style="opacity: 0.2; transform-origin: 374.815px 196px;" class="animable">
                <polygon points="359.33 203.15 370.17 188.75 376.82 197.8 381.37 192.99 390.3 203.25 359.33 203.15" id="el8ytjwvmnqyk" class="animable" style="transform-origin: 374.815px 196px;"></polygon>
            </g>
        </g>
        <path d="M391.28,210.43c0,.14-6.92.26-15.46.26s-15.47-.12-15.47-.26,6.93-.26,15.47-.26S391.28,210.29,391.28,210.43Z" style="fill: rgb(38, 50, 56); transform-origin: 375.815px 210.43px;" id="elazzn45r60gh" class="animable"></path>
        <path d="M385.49,213.93a91.29,91.29,0,0,1-9.67.26,91.29,91.29,0,0,1-9.67-.26,91.29,91.29,0,0,1,9.67-.26A91.29,91.29,0,0,1,385.49,213.93Z" style="fill: rgb(224, 224, 224); transform-origin: 375.82px 213.93px;" id="eldghi81pcrrj" class="animable"></path>
        <polygon points="406.6 202.23 437.58 202.33 437.58 179.1 406.68 179 406.6 202.23" style="fill: rgb(253, 51, 121); transform-origin: 422.09px 190.665px;" id="el67e0ze6rtw2" class="animable"></polygon>
        <g id="elmv4ud1q6ri">
            <g style="opacity: 0.2; transform-origin: 424.56px 186.09px;" class="animable">
                <path d="M427,186.09a2.44,2.44,0,1,1-2.42-2.44A2.43,2.43,0,0,1,427,186.09Z" id="elntaa5eai1hl" class="animable" style="transform-origin: 424.56px 186.09px;"></path>
            </g>
        </g>
        <g id="elfkdjlhw8kku">
            <g style="opacity: 0.2; transform-origin: 422.09px 195.08px;" class="animable">
                <polygon points="406.6 202.23 417.44 187.83 424.1 196.88 428.65 192.07 437.58 202.33 406.6 202.23" id="el1t9l5rocx2r" class="animable" style="transform-origin: 422.09px 195.08px;"></polygon>
            </g>
        </g>
        <path d="M438.56,209.51c0,.14-6.93.26-15.47.26s-15.46-.12-15.46-.26,6.92-.26,15.46-.26S438.56,209.36,438.56,209.51Z" style="fill: rgb(38, 50, 56); transform-origin: 423.095px 209.51px;" id="elw67nwbl1jjn" class="animable"></path>
        <path d="M432.76,213a91.29,91.29,0,0,1-9.67.26,91.29,91.29,0,0,1-9.67-.26,88.19,88.19,0,0,1,9.67-.26A88.19,88.19,0,0,1,432.76,213Z" style="fill: rgb(224, 224, 224); transform-origin: 423.09px 212.998px;" id="elna8mjf0l1hj" class="animable"></path>
        <polygon points="309.23 245.49 340.2 245.59 340.2 222.36 309.3 222.26 309.23 245.49" style="fill: rgb(253, 51, 121); transform-origin: 324.715px 233.925px;" id="el1eqz1ghofry" class="animable"></polygon>
        <g id="eluh1vhgv58w">
            <g style="opacity: 0.2; transform-origin: 327.16px 229.34px;" class="animable">
                <path d="M329.59,229.35a2.43,2.43,0,1,1-2.42-2.44A2.42,2.42,0,0,1,329.59,229.35Z" id="eldn603c7fglf" class="animable" style="transform-origin: 327.16px 229.34px;"></path>
            </g>
        </g>
        <g id="elmz7wlacdqnb">
            <g style="opacity: 0.2; transform-origin: 324.715px 238.34px;" class="animable">
                <polygon points="309.23 245.49 320.06 231.09 326.72 240.14 331.27 235.32 340.2 245.59 309.23 245.49" id="el8yt5ux05wrs" class="animable" style="transform-origin: 324.715px 238.34px;"></polygon>
            </g>
        </g>
        <path d="M341.18,252.77c0,.14-6.92.26-15.46.26s-15.47-.12-15.47-.26,6.92-.26,15.47-.26S341.18,252.62,341.18,252.77Z" style="fill: rgb(38, 50, 56); transform-origin: 325.715px 252.77px;" id="elh8swfailwo" class="animable"></path>
        <path d="M335.39,256.27a91.29,91.29,0,0,1-9.67.26,91.41,91.41,0,0,1-9.68-.26,88.3,88.3,0,0,1,9.68-.26A88.19,88.19,0,0,1,335.39,256.27Z" style="fill: rgb(224, 224, 224); transform-origin: 325.715px 256.268px;" id="elwyzc6j92qx" class="animable"></path>
        <polygon points="359.33 245.49 390.3 245.59 390.3 222.36 359.4 222.26 359.33 245.49" style="fill: rgb(253, 51, 121); transform-origin: 374.815px 233.925px;" id="elvur6xmos6g" class="animable"></polygon>
        <g id="elas8urhgkf16">
            <g style="opacity: 0.2; transform-origin: 377.26px 229.35px;" class="animable">
                <path d="M379.7,229.35a2.44,2.44,0,1,1-2.43-2.44A2.43,2.43,0,0,1,379.7,229.35Z" id="eliv5jyxodyfd" class="animable" style="transform-origin: 377.26px 229.35px;"></path>
            </g>
        </g>
        <g id="elxae85owdcah">
            <g style="opacity: 0.2; transform-origin: 374.815px 238.34px;" class="animable">
                <polygon points="359.33 245.49 370.17 231.09 376.82 240.14 381.37 235.32 390.3 245.59 359.33 245.49" id="elw9yzsrz0l4e" class="animable" style="transform-origin: 374.815px 238.34px;"></polygon>
            </g>
        </g>
        <path d="M391.28,252.77c0,.14-6.92.26-15.46.26s-15.47-.12-15.47-.26,6.93-.26,15.47-.26S391.28,252.62,391.28,252.77Z" style="fill: rgb(38, 50, 56); transform-origin: 375.815px 252.77px;" id="eleb37lsfy90v" class="animable"></path>
        <path d="M385.49,256.27a91.29,91.29,0,0,1-9.67.26,91.29,91.29,0,0,1-9.67-.26,88.19,88.19,0,0,1,9.67-.26A88.19,88.19,0,0,1,385.49,256.27Z" style="fill: rgb(224, 224, 224); transform-origin: 375.82px 256.268px;" id="el5fphlobwocr" class="animable"></path>
        <polygon points="406.6 244.56 437.58 244.66 437.58 221.44 406.68 221.34 406.6 244.56" style="fill: rgb(253, 51, 121); transform-origin: 422.09px 233px;" id="elz5e80cu6p8m" class="animable"></polygon>
        <g id="el2ncx5dms8s5">
            <g style="opacity: 0.2; transform-origin: 424.56px 228.42px;" class="animable">
                <path d="M427,228.42a2.44,2.44,0,1,1-2.42-2.44A2.43,2.43,0,0,1,427,228.42Z" id="el18tqp9hwg97" class="animable" style="transform-origin: 424.56px 228.42px;"></path>
            </g>
        </g>
        <g id="elur8mu1hp7x">
            <g style="opacity: 0.2; transform-origin: 422.09px 237.41px;" class="animable">
                <polygon points="406.6 244.56 417.44 230.16 424.1 239.22 428.65 234.4 437.58 244.66 406.6 244.56" id="el7zl7cyzrw0u" class="animable" style="transform-origin: 422.09px 237.41px;"></polygon>
            </g>
        </g>
        <path d="M438.56,251.84c0,.15-6.93.26-15.47.26s-15.46-.11-15.46-.26,6.92-.26,15.46-.26S438.56,251.7,438.56,251.84Z" style="fill: rgb(38, 50, 56); transform-origin: 423.095px 251.84px;" id="elxl2z5rvesuc" class="animable"></path>
        <path d="M432.76,255.34a88.19,88.19,0,0,1-9.67.26,88.19,88.19,0,0,1-9.67-.26,91.29,91.29,0,0,1,9.67-.26A91.29,91.29,0,0,1,432.76,255.34Z" style="fill: rgb(224, 224, 224); transform-origin: 423.09px 255.342px;" id="elfo7uofbsxr" class="animable"></path>
        <rect x="60.28" y="39.51" width="203.65" height="187.08" style="fill: rgb(255, 255, 255); transform-origin: 162.105px 133.05px;" id="elf3meet9gecm" class="animable"></rect>
        <polygon points="60.04 220.16 263.93 220.81 263.93 67.93 60.53 67.28 60.04 220.16" style="fill: rgb(253, 51, 121); transform-origin: 161.985px 144.045px;" id="ele5cclh8t9oj" class="animable"></polygon>
        <g id="ell7p5u8rc66h">
            <g style="opacity: 0.2; transform-origin: 178.11px 113.85px;" class="animable">
                <path d="M194.11,113.92a16,16,0,1,1-16-16.07A16,16,0,0,1,194.11,113.92Z" id="ell3hd8h1j8v" class="animable" style="transform-origin: 178.11px 113.85px;"></path>
            </g>
        </g>
        <g id="elvfr8htq5kw">
            <g style="opacity: 0.2; transform-origin: 161.985px 173.085px;" class="animable">
                <polygon points="60.04 220.16 131.39 125.36 175.2 184.96 205.15 153.27 263.93 220.81 60.04 220.16" id="elsv5lo0f9ln" class="animable" style="transform-origin: 161.985px 173.085px;"></polygon>
            </g>
        </g>
        <path d="M68.44,46.93a2,2,0,1,1-2-2A2,2,0,0,1,68.44,46.93Z" style="fill: rgb(224, 224, 224); transform-origin: 66.44px 46.93px;" id="ela68nm4t8nij" class="animable"></path>
        <path d="M74.78,47a2,2,0,1,1-2-2A2,2,0,0,1,74.78,47Z" style="fill: rgb(224, 224, 224); transform-origin: 72.78px 47px;" id="elqpm5v5hgoj" class="animable"></path>
        <path d="M81.13,47.11a2,2,0,1,1-2-2A2,2,0,0,1,81.13,47.11Z" style="fill: rgb(224, 224, 224); transform-origin: 79.13px 47.11px;" id="el34qkkjfddns" class="animable"></path>
        <rect x="60.28" y="54.21" width="203.65" height="13.72" style="fill: rgb(245, 245, 245); transform-origin: 162.105px 61.07px;" id="el002l8m5bian0t" class="animable"></rect>
        <path d="M201.05,47.18c0,.14-15.59.26-34.82.26s-34.83-.12-34.83-.26,15.59-.26,34.83-.26S201.05,47,201.05,47.18Z" style="fill: rgb(38, 50, 56); transform-origin: 166.225px 47.18px;" id="elzd2l9qy97od" class="animable"></path>
        <path d="M263.93,226.59c0-1.88-.09-74.65-.22-187.08l.22.22-203.63,0h0l.26-.26c0,68.17,0,132.26,0,187.08l-.23-.23,203.65.23-203.65.23h-.23v-.23c0-54.82,0-118.91,0-187.08v-.26h.28l203.63,0h.22v.23C264,151.94,263.93,224.71,263.93,226.59Z" style="fill: rgb(38, 50, 56); transform-origin: 162.165px 132.995px;" id="el5ibr2kpnojo" class="animable"></path>
        <circle cx="263.93" cy="129.73" r="11.94" style="fill: rgb(245, 245, 245); transform-origin: 263.93px 129.73px;" id="eljk9v4iobwto" class="animable"></circle>
        <path d="M263.93,141.7a12,12,0,1,1,12-12A12,12,0,0,1,263.93,141.7Zm0-23.89a11.92,11.92,0,1,0,11.92,11.92A11.93,11.93,0,0,0,263.93,117.81Z" style="fill: rgb(38, 50, 56); transform-origin: 263.93px 129.7px;" id="el2t4bcy2nh7e" class="animable"></path>
        <circle cx="263.93" cy="129.73" r="11.94" style="fill: rgb(245, 245, 245); transform-origin: 263.93px 129.73px;" id="elc1t42jw2g8h" class="animable"></circle>
        <path d="M275.88,129.73a26.44,26.44,0,0,0-.48-2.89,11.85,11.85,0,0,0-9.3-8.63,11.8,11.8,0,0,0-6.15.53,11.8,11.8,0,0,0-5.43,4.08,11.65,11.65,0,0,0,0,13.82,11.8,11.8,0,0,0,5.43,4.08,11.8,11.8,0,0,0,15.45-8.1,26.44,26.44,0,0,0,.48-2.89,9.59,9.59,0,0,1-.06,1.69,8.71,8.71,0,0,1-.22,1.25,11.88,11.88,0,0,1-4.33,6.7,12.08,12.08,0,0,1-11.49,1.8,11.26,11.26,0,0,1-3.09-1.65,11.48,11.48,0,0,1-2.58-2.58,12.11,12.11,0,0,1,0-14.42,11.48,11.48,0,0,1,2.58-2.58,11.26,11.26,0,0,1,3.09-1.65,12.08,12.08,0,0,1,11.49,1.8,11.88,11.88,0,0,1,4.33,6.7,8.71,8.71,0,0,1,.22,1.25,9.59,9.59,0,0,1,.06,1.69Z" style="fill: rgb(38, 50, 56); transform-origin: 263.812px 129.73px;" id="elot0aq7bwb8h" class="animable"></path>
        <path d="M263,133.55a.51.51,0,0,1-.36-.15.51.51,0,0,1,0-.71l3-3-3-3a.51.51,0,0,1,0-.71.5.5,0,0,1,.71,0l3.32,3.32a.5.5,0,0,1,0,.7l-3.32,3.32A.5.5,0,0,1,263,133.55Z" style="fill: rgb(38, 50, 56); transform-origin: 264.655px 129.691px;" id="elfpha33ullhr" class="animable"></path>
        <g id="elnkmd5bob3m">
            <circle cx="58.86" cy="133.05" r="11.94" style="fill: rgb(245, 245, 245); transform-origin: 58.86px 133.05px; transform: rotate(-23.02deg);" class="animable"></circle>
        </g>
        <path d="M46.92,133.05a22.1,22.1,0,0,0,.47,2.89,12,12,0,0,0,4.36,6.45,11.62,11.62,0,0,0,5,2.18,11.81,11.81,0,0,0,6.15-.53A11.8,11.8,0,0,0,68.28,140a11.65,11.65,0,0,0,0-13.82,11.62,11.62,0,0,0-5.43-4.08,11.72,11.72,0,0,0-11.1,1.64,12,12,0,0,0-4.36,6.46,21.54,21.54,0,0,0-.47,2.89,4.08,4.08,0,0,1,0-.77,5.47,5.47,0,0,1,.07-.92,7.34,7.34,0,0,1,.22-1.25,11.88,11.88,0,0,1,4.33-6.7,12.05,12.05,0,0,1,5.09-2.31,12.18,12.18,0,0,1,6.39.51,11.12,11.12,0,0,1,3.09,1.65,11.32,11.32,0,0,1,2.59,2.58,12.11,12.11,0,0,1,0,14.42,11.32,11.32,0,0,1-2.59,2.58A11.12,11.12,0,0,1,63,144.49a12.06,12.06,0,0,1-11.48-1.8A11.91,11.91,0,0,1,47.2,136a7.51,7.51,0,0,1-.22-1.25,5.66,5.66,0,0,1-.07-.93A4,4,0,0,1,46.92,133.05Z" style="fill: rgb(38, 50, 56); transform-origin: 58.9882px 133.069px;" id="eleusn934evjr" class="animable"></path>
        <path d="M59.83,136.87a.49.49,0,0,1-.35-.15l-3.32-3.32a.5.5,0,0,1,0-.71l3.32-3.31a.5.5,0,0,1,.71,0,.5.5,0,0,1,0,.7l-3,3,3,3a.51.51,0,0,1,0,.71A.51.51,0,0,1,59.83,136.87Z" style="fill: rgb(38, 50, 56); transform-origin: 58.173px 133.054px;" id="eltp5vuktuz7n" class="animable"></path>
    </g>
    <g id="freepik--Character--inject-11" class="animable" style="transform-origin: 331.309px 324.413px;">
        <polygon points="406.26 485.14 397.19 485.27 306.76 385.42 312.34 380.37 406.26 485.14" style="fill: rgb(38, 50, 56); transform-origin: 356.51px 432.82px;" id="elk5pefcpiklh" class="animable"></polygon>
        <polygon points="307.14 485.14 296.42 484.76 394.17 380.89 399.64 386.04 307.14 485.14" style="fill: rgb(38, 50, 56); transform-origin: 348.03px 433.015px;" id="el9ax0dq4a8x" class="animable"></polygon>
        <polygon points="449.48 227.7 390.29 229.18 324.86 380.4 397.57 380.57 449.48 227.7" style="fill: rgb(69, 90, 100); transform-origin: 387.17px 304.135px;" id="ellfyza21iqg" class="animable"></polygon>
        <polygon points="457.43 234.15 402.43 391.6 247.17 391.6 247.17 380.57 397.57 380.57 449.48 227.7 457.43 234.15" style="fill: rgb(69, 90, 100); transform-origin: 352.3px 309.65px;" id="elko8wy0zrrwc" class="animable"></polygon>
        <path d="M449.47,227.7s-.07.27-.23.77l-.73,2.25-2.87,8.62L435,271,399.61,375.42c-.61,1.8-1.21,3.58-1.78,5.24l-.06.19h-.2L291,380.76l-32.1-.09-8.7-.05-2.27,0-.77,0,.77,0,2.27,0,8.7-.05,32.1-.09,106.56-.08-.26.19c.56-1.66,1.17-3.44,1.77-5.24l35.53-104.36,10.82-31.61c1.29-3.72,2.29-6.61,3-8.59l.79-2.22C449.37,228,449.47,227.7,449.47,227.7Z" style="fill: rgb(38, 50, 56); transform-origin: 348.315px 304.275px;" id="elo9sos98x1p" class="animable"></path>
        <polygon points="376.57 485.27 364.79 485.27 274.36 385.42 279.94 380.37 376.57 485.27" style="fill: rgb(69, 90, 100); transform-origin: 325.465px 432.82px;" id="elqgwmzrlsp6" class="animable"></polygon>
        <polygon points="274.56 485.14 263.66 485.14 361.77 380.89 367.24 386.04 274.56 485.14" style="fill: rgb(69, 90, 100); transform-origin: 315.45px 433.015px;" id="elru9xtlgjlwa" class="animable"></polygon>
        <rect x="319.33" y="425.98" width="35.08" height="8.12" style="fill: rgb(69, 90, 100); transform-origin: 336.87px 430.04px;" id="elgqnu51ck5d4" class="animable"></rect>
        <path d="M368.59,163.65c6.11-.63,11.27,2,16.15,5.79a30.43,30.43,0,0,1,10.22,15,30.05,30.05,0,0,1-.14,19.07,24,24,0,0,1-12.76,13.91c-8.12,3.48-18.09,1.43-24.77-4.35s-10.13-14.84-9.89-23.67a29.17,29.17,0,0,1,5.74-17,22.22,22.22,0,0,1,15.45-8.72" style="fill: rgb(38, 50, 56); transform-origin: 371.916px 191.34px;" id="elnkwf2tzmw1" class="animable"></path>
        <path d="M384.44,185.33c-.74-2.37-.23-4.93-.42-7.4-.41-5.45-4.48-10.06-9.37-12.49-4.55-2.27-10.29-2.21-16-.76a21.49,21.49,0,0,0-10.51,5.9,17,17,0,0,0-4.11,15l27.87-2.21c2.45,2.31,4.95,4.65,8,6.05a5.73,5.73,0,0,0,2.85.65,2.57,2.57,0,0,0,2.26-1.63C385.31,187.43,384.75,186.36,384.44,185.33Z" style="fill: rgb(38, 50, 56); transform-origin: 364.38px 176.863px;" id="elmlpxzdcg4t" class="animable"></path>
        <path d="M357.52,172.26,381.29,179a4.51,4.51,0,0,1,3.91,4.68l-3.7,52.15a16.26,16.26,0,0,1-4.05,9.61L375,248.21c-5.68,6.41-16.26,5-19.76-2.78a5.77,5.77,0,0,1-.47-1.41,11.72,11.72,0,0,1-.15-1.19,37.87,37.87,0,0,1,.1-7.92c.07-4.66.12-6.58.12-6.53s-9.79-1.89-11.48-14.77c-.85-6.4-.25-16.85.52-25.38C344.53,180.55,349.87,171.25,357.52,172.26Z" style="fill: rgb(255, 190, 157); transform-origin: 364.075px 212.22px;" id="elrwfx5uu3dlf" class="animable"></path>
        <path d="M346.86,198.26a1.65,1.65,0,0,0,1.54,1.7,1.57,1.57,0,0,0,1.74-1.44,1.65,1.65,0,0,0-1.54-1.7A1.58,1.58,0,0,0,346.86,198.26Z" style="fill: rgb(38, 50, 56); transform-origin: 348.5px 198.391px;" id="elfw66dlyy8op" class="animable"></path>
        <path d="M346,193.73c.2.22,1.47-.67,3.24-.62s3,1,3.24.76-.1-.49-.66-.91a4.48,4.48,0,0,0-2.58-.88,4.38,4.38,0,0,0-2.59.76C346.06,193.25,345.86,193.63,346,193.73Z" style="fill: rgb(38, 50, 56); transform-origin: 349.258px 192.994px;" id="elk4ql7qkbiri" class="animable"></path>
        <path d="M362.71,198.9a1.64,1.64,0,0,0,1.54,1.7,1.57,1.57,0,0,0,1.73-1.44,1.64,1.64,0,0,0-1.54-1.7A1.57,1.57,0,0,0,362.71,198.9Z" style="fill: rgb(38, 50, 56); transform-origin: 364.345px 199.03px;" id="elvd3fnn4soa" class="animable"></path>
        <path d="M362.75,194.4c.2.21,1.47-.67,3.24-.62s3,1,3.24.76-.1-.49-.66-.92a4.56,4.56,0,0,0-2.59-.87,4.35,4.35,0,0,0-2.58.76C362.85,193.91,362.65,194.3,362.75,194.4Z" style="fill: rgb(38, 50, 56); transform-origin: 366.017px 193.664px;" id="el2g00a7c5z2r" class="animable"></path>
        <path d="M356.57,207.47a11.4,11.4,0,0,0-2.86-.59c-.45-.06-.87-.16-.94-.47a2.23,2.23,0,0,1,.34-1.33c.45-1.09.93-2.22,1.43-3.41,2-4.85,3.43-8.84,3.24-8.92s-2,3.79-4,8.64c-.47,1.2-.93,2.34-1.37,3.43a2.63,2.63,0,0,0-.28,1.76,1.12,1.12,0,0,0,.73.68,2.88,2.88,0,0,0,.76.13A11.71,11.71,0,0,0,356.57,207.47Z" style="fill: rgb(38, 50, 56); transform-origin: 354.94px 200.138px;" id="elu35cag70f3" class="animable"></path>
        <path d="M354.8,228.38a32.65,32.65,0,0,0,17.29-4.13s-4.55,8.76-17.36,7.22Z" style="fill: rgb(235, 153, 110); transform-origin: 363.41px 227.951px;" id="elvzd70l84j0h" class="animable"></path>
        <path d="M357.21,211.76a3.17,3.17,0,0,1,2.89-1.11,2.9,2.9,0,0,1,2,1.13,1.84,1.84,0,0,1,.08,2.11,2.13,2.13,0,0,1-2.33.53A6.91,6.91,0,0,1,357.6,213a2.29,2.29,0,0,1-.49-.54.6.6,0,0,1,0-.66" style="fill: rgb(235, 153, 110); transform-origin: 359.743px 212.591px;" id="elqm6obdp6lsd" class="animable"></path>
        <path d="M361.75,208.83c-.29,0-.34,1.9-2,3.22s-3.72,1-3.74,1.32c0,.12.44.39,1.3.43a4.7,4.7,0,0,0,3.12-1,4.17,4.17,0,0,0,1.58-2.7C362.08,209.31,361.88,208.83,361.75,208.83Z" style="fill: rgb(38, 50, 56); transform-origin: 359.017px 211.317px;" id="elnabrswqb67i" class="animable"></path>
        <path d="M363.19,189.16c.16.49,1.93.31,4,.61s3.74.92,4,.49c.13-.2-.15-.66-.81-1.14a7,7,0,0,0-6.11-.84C363.51,188.56,363.12,188.93,363.19,189.16Z" style="fill: rgb(38, 50, 56); transform-origin: 367.202px 189.166px;" id="elkwxkw58bsek" class="animable"></path>
        <path d="M346.68,186c.3.41,1.53,0,3,.05s2.7.34,3-.07c.13-.2-.05-.61-.58-1a4.21,4.21,0,0,0-2.42-.72,4.15,4.15,0,0,0-2.41.75C346.73,185.39,346.55,185.8,346.68,186Z" style="fill: rgb(38, 50, 56); transform-origin: 349.68px 185.228px;" id="elsr4kvf4ay1" class="animable"></path>
        <path d="M389.1,181.9c-2-7.51-12.28-18.22-20.05-18l-12.7,6.85a12,12,0,0,0,7.68,9.5c2.16.76,4.78,1.07,6,3s.33,4.74,1.48,6.77c1.59,2.83,6.27,2.91,7.42,5.94.51,1.32.14,2.85.67,4.17.7,1.75,4.94,4.12,6.76,3.63s2-3.54,2.63-5.12a8.45,8.45,0,0,0,.51-5.67C388.89,189.29,390.06,185.48,389.1,181.9Z" style="fill: rgb(38, 50, 56); transform-origin: 373.06px 183.861px;" id="elday1ajvh4h7" class="animable"></path>
        <path d="M381,205c0-.95,1.19-3.17,2.13-3.3,2.53-.32,7.07,0,6.94,6.4-.18,8.74-8.92,6.76-8.93,6.51S380.9,208.31,381,205Z" style="fill: rgb(255, 190, 157); transform-origin: 385.524px 208.297px;" id="el2po9h2gj3fm" class="animable"></path>
        <path d="M383.88,211.36s.15.11.4.23a1.53,1.53,0,0,0,1.14,0c.93-.32,1.74-1.77,1.81-3.35a5,5,0,0,0-.38-2.19,1.76,1.76,0,0,0-1.12-1.19.79.79,0,0,0-.91.4c-.12.24-.07.42-.12.43s-.18-.15-.1-.51a1,1,0,0,1,.35-.54,1.21,1.21,0,0,1,.85-.2,2.12,2.12,0,0,1,1.56,1.39,5,5,0,0,1,.48,2.44c-.09,1.76-1,3.39-2.3,3.73a1.58,1.58,0,0,1-1.38-.26C383.89,211.57,383.85,211.38,383.88,211.36Z" style="fill: rgb(235, 153, 110); transform-origin: 385.86px 208.244px;" id="elz17nowl6j3l" class="animable"></path>
        <path d="M391.11,179.76h0c.15-2.73,3.68-4.29,6.37-4.74a11.36,11.36,0,0,1,7.76,2c1.35.86,2.69,2,2.9,3.63s-1.42,3.35-2.88,2.69a5.18,5.18,0,1,1-5.58,8.51,11.58,11.58,0,0,0,4.13,6.49,13,13,0,0,1-12.7-18.6Z" style="fill: rgb(38, 50, 56); transform-origin: 399.143px 186.665px;" id="elw4kneo5k9gk" class="animable"></path>
        <path d="M396.26,194a7.81,7.81,0,0,0,.49-2.6,19.25,19.25,0,0,0-3.23-12.17,7.47,7.47,0,0,0-1.72-2c-.17.1,2.57,3.19,3.8,8S396.06,194,396.26,194Z" style="fill: rgb(253, 51, 121); transform-origin: 394.297px 185.615px;" id="elur1z643lbu" class="animable"></path>
        <path d="M359.06,168.25c-1,3.5-6.73,7.7-9.28,10.3-4.86,5-5.87,6.67-6.6,18.46-1.86-4.21-3.24-8.3-2.77-12.89A19,19,0,0,1,346.28,172a14.82,14.82,0,0,1,12.78-3.71" style="fill: rgb(38, 50, 56); transform-origin: 349.689px 182.526px;" id="elx1bznbf39o" class="animable"></path>
        <path d="M393.55,182.07a8.6,8.6,0,0,1-1.51.28c-.48.07-1.08.15-1.78.19s-1.49.13-2.38.12a42.52,42.52,0,0,1-6.18-.34,47.61,47.61,0,0,1-7.41-1.63,46.61,46.61,0,0,1-7-2.9,40.76,40.76,0,0,1-5.27-3.25c-.73-.5-1.34-1-1.89-1.46s-1-.84-1.35-1.18a7.69,7.69,0,0,1-1.08-1.08,9.26,9.26,0,0,1,1.21.93c.38.32.84.7,1.4,1.1s1.18.91,1.92,1.38a43.63,43.63,0,0,0,5.28,3.13,45.53,45.53,0,0,0,14.27,4.48,46.4,46.4,0,0,0,6.12.45c.88,0,1.67,0,2.36,0s1.29-.06,1.78-.11A10.89,10.89,0,0,1,393.55,182.07Z" style="fill: rgb(69, 90, 100); transform-origin: 375.625px 176.743px;" id="el0ibn82wo74ag" class="animable"></path>
        <path d="M394.05,188.39a5,5,0,0,1-1,.18,25.7,25.7,0,0,1-2.83.17A35,35,0,0,1,372.24,184a24.68,24.68,0,0,1-2.37-1.55,4,4,0,0,1-.81-.67c.06-.07,1.27.77,3.36,1.9a39.45,39.45,0,0,0,17.77,4.7C392.57,188.43,394,188.29,394.05,188.39Z" style="fill: rgb(69, 90, 100); transform-origin: 381.555px 185.259px;" id="eldko27huhr4f" class="animable"></path>
        <path d="M380,326.6l-56.11,8.15c-21.08,6-43.29,7.72-66.5,5.7l84.45,39.4,33.9.52s10.33,0,12.13-9c1.83-9.18,3.81-36.44,3.81-36.44S385,329.11,380,326.6Z" style="fill: rgb(253, 51, 121); transform-origin: 324.535px 353.485px;" id="elytrse1nbz7p" class="animable"></path>
        <g id="elbtx1j12gpu4">
            <g style="opacity: 0.3; transform-origin: 383.349px 353.235px;" class="animable">
                <path d="M379.83,350.23a82,82,0,0,1,1,17A16.87,16.87,0,0,0,385,353.05c-.49-2.77-1.64-5.82-.19-8.23,1-1.62,3.55-3.48,3.17-5.33,0,0-2.25,0-4.3-.08-1.64-.07-5-.17-5-.17,1.72,4.44,1.59,7.18.9,11.15" id="elgiedf1vyoql" class="animable" style="transform-origin: 383.349px 353.235px;"></path>
            </g>
        </g>
        <polygon points="353.84 237.88 381.86 235.52 385.9 235.93 368.03 250.62 358.89 253.8 350.87 250.04 348.93 244.66 353.84 237.88" style="fill: rgb(255, 190, 157); transform-origin: 367.415px 244.66px;" id="el0u2lzikb1et" class="animable"></polygon>
        <polygon points="320.7 269.51 310.15 302.96 287.54 334.9 301.84 345.19 326.55 314.69 334.82 276.9 320.7 269.51" style="fill: rgb(255, 190, 157); transform-origin: 311.18px 307.35px;" id="elsy3a7a00g3i" class="animable"></polygon>
        <path d="M316.12,263.53s10.29-15.51,13.4-18.27c3.74-3.33,10.54-5.9,10.54-5.9l13.78-1.48s-8.49,9.82,1.25,11,30.81-13,30.81-13,14.73,2.75,18.39,4.95,12.9,7.79,12.42,22.65l0,11.93s-27.79-1-28,0-5.85,44.81-5.85,44.81l-14.12,8.53s-38.09,7.28-40.53,7.77-.63-61.84-.63-61.84S317.83,270.1,316.12,263.53Z" style="fill: rgb(38, 50, 56); transform-origin: 366.424px 286.201px;" id="el1cigv40hxzr" class="animable"></path>
        <path d="M331.32,324.28l52-7.81,5.36-41h26.06s-6.19,28.89-7.55,36.29c-2,10.63-9.26,24.84-13.15,27.52s-65.86-2.7-65.86-2.7Z" style="fill: rgb(255, 190, 157); transform-origin: 371.46px 307.749px;" id="el2r1f4y40jdt" class="animable"></path>
        <path d="M301.77,329a2,2,0,0,0,1.84,1.24,1.77,1.77,0,0,0,.5-.07c1.16-.29,1.2-2.6,1.2-2.6l5.5-.53s6.77,5,9.08,8.2,8.9,1.16,8.9,1.16l3-11.44-9.41-9.7s.58.58,0-1.16-3.77-1.3-3.77-1.3c-.43-.87-2.47-1.31-2.47-1.31l-8.84.44a6,6,0,0,0-4.58,2.48l-4.09,5.63s-2.24,4.1-2,5.1a1.76,1.76,0,0,0,2,1.29s.25,2.81,1,2.95a5.9,5.9,0,0,0,2.21-.38Z" style="fill: rgb(255, 190, 157); transform-origin: 314.201px 324.265px;" id="elboi54b2upww" class="animable"></path>
        <path d="M321,321.92c0,.09-1.17-.1-3.05-.14a26.8,26.8,0,0,0-7.25.87,26.31,26.31,0,0,0-3.8,1.34c-1.1.53-2.24.95-2.63,1.7a1.08,1.08,0,0,0,0,1.05,1.49,1.49,0,0,0,.63.6,2.14,2.14,0,0,0,.76.16s-.29.23-.85,0a1.62,1.62,0,0,1-.81-.64,1.4,1.4,0,0,1-.11-1.39,2.84,2.84,0,0,1,1.17-1.16c.5-.28,1-.57,1.6-.83a23.19,23.19,0,0,1,3.86-1.41,22.88,22.88,0,0,1,7.42-.72A9.89,9.89,0,0,1,321,321.92Z" style="fill: rgb(235, 153, 110); transform-origin: 312.378px 324.451px;" id="elpaocr2egoy9" class="animable"></path>
        <path d="M321.24,327.55c0,.17-3.58-.22-8-.25s-8,.28-8,.11a9.42,9.42,0,0,1,2.32-.4,51.74,51.74,0,0,1,5.68-.27,48.52,48.52,0,0,1,5.67.37A8.94,8.94,0,0,1,321.24,327.55Z" style="fill: rgb(235, 153, 110); transform-origin: 313.24px 327.166px;" id="el8y6hiin70ki" class="animable"></path>
        <path d="M301.84,328.8a3.83,3.83,0,0,1,0-.95,19.82,19.82,0,0,1,.16-2.57,10.8,10.8,0,0,1,.36-1.76,5.42,5.42,0,0,1,1-1.86,12.11,12.11,0,0,1,3.51-3.15,16.61,16.61,0,0,1,4.33-1.85,14.92,14.92,0,0,1,3.83-.32c1.09,0,2,.11,2.56.17a3.24,3.24,0,0,1,.94.16,30.28,30.28,0,0,1-3.5.06,16.24,16.24,0,0,0-3.7.44,17.07,17.07,0,0,0-4.18,1.82,12.22,12.22,0,0,0-3.39,3,6.67,6.67,0,0,0-1.36,3.36C302,327.45,302,328.81,301.84,328.8Z" style="fill: rgb(235, 153, 110); transform-origin: 310.17px 322.562px;" id="elr9ym7ziv8kl" class="animable"></path>
        <path d="M315.55,313.71c0,.08-1.32,0-3.43.13s-5.28.12-7.3,2.78a29.89,29.89,0,0,0-4.88,6.59,18.22,18.22,0,0,0-1.05,3.23,2.39,2.39,0,0,1,0-.93,8.9,8.9,0,0,1,.68-2.46,26,26,0,0,1,4.82-6.81,9.51,9.51,0,0,1,1.82-1.61,6.27,6.27,0,0,1,2.13-.84,18.35,18.35,0,0,1,3.76-.34A12.43,12.43,0,0,1,315.55,313.71Z" style="fill: rgb(235, 153, 110); transform-origin: 307.197px 319.932px;" id="elw2lhbs70wgf" class="animable"></path>
        <path d="M318.1,333.26a3.29,3.29,0,0,1-.5-.44l-1.39-1.27a59.79,59.79,0,0,0-5.51-4.35l.13,0-5.49.57.2-.22a5.92,5.92,0,0,1-.19,1.32,2.45,2.45,0,0,1-.7,1.27,1.31,1.31,0,0,1-.75.28,1.77,1.77,0,0,1-.76,0,2.21,2.21,0,0,1-1.31-.84,1.94,1.94,0,0,1-.21-.34l-.05-.09,0,0v0h0l.31.14h0l-.17.06-.72.2a5.7,5.7,0,0,1-.76.14,2.64,2.64,0,0,1-.4,0,.89.89,0,0,1-.5-.13,1.73,1.73,0,0,1-.49-.75,6.77,6.77,0,0,1-.22-.77,13,13,0,0,1-.24-1.56l.3.24a2.06,2.06,0,0,1-2-.82,1.65,1.65,0,0,1-.3-1.12,5,5,0,0,1,.26-1,31,31,0,0,1,1.75-3.81h0v0l2.19-3L302,315a11.56,11.56,0,0,1,1.5-1.83,6,6,0,0,1,2.06-1.18,7.83,7.83,0,0,1,2.27-.32l8.33-.39h.07a7.41,7.41,0,0,1,1.42.48,2.46,2.46,0,0,1,1.2,1l-.29-.11a3,3,0,0,1,2.8.34,3.48,3.48,0,0,1,1.25,2.31l-.06-.12,6.49,6.65,1.75,1.84a5,5,0,0,1,.58.67,5.53,5.53,0,0,1-.67-.59l-1.82-1.75-6.62-6.52,0-.05v-.07a3.16,3.16,0,0,0-1.1-2,2.56,2.56,0,0,0-2.37-.26l-.2.07-.1-.19a2.11,2.11,0,0,0-1-.73,7.13,7.13,0,0,0-1.33-.43h.07l-8.34.44a6.8,6.8,0,0,0-2.12.3,5.19,5.19,0,0,0-1.86,1.07,10.42,10.42,0,0,0-1.42,1.74L301,317.21l-2.19,3,0,0a30.17,30.17,0,0,0-1.72,3.72,4.17,4.17,0,0,0-.24.92,1.1,1.1,0,0,0,.21.76,1.53,1.53,0,0,0,1.45.6l.28,0,0,.27a12.16,12.16,0,0,0,.23,1.49,2.66,2.66,0,0,0,.49,1.21.5.5,0,0,0,.22,0,1.85,1.85,0,0,0,.33,0,5.58,5.58,0,0,0,.69-.13q.35-.07.69-.18l.16-.06h0l.31.14h0v0l0,0,0,.08a1.45,1.45,0,0,0,.17.26,1.7,1.7,0,0,0,1,.66,1.35,1.35,0,0,0,.6,0,.92.92,0,0,0,.51-.18,3.39,3.39,0,0,0,.74-2.23l0-.2h.18l5.5-.5h.07l.05,0a53.26,53.26,0,0,1,5.44,4.51c.59.57,1,1,1.33,1.35A2.75,2.75,0,0,1,318.1,333.26Z" style="fill: rgb(235, 153, 110); transform-origin: 313.871px 322.27px;" id="elcmx89r7dzx" class="animable"></path>
        <path d="M288.93,344.19S253.37,333,242.21,329.4c-19.23-6.23-31.82.07-35.79,7-5.15,8.92,7.2,26.33,12,30.33,14.1,11.85,38.26,13.45,38.26,13.45h0l86.89-.17-25.37-34.39Z" style="fill: rgb(253, 51, 121); transform-origin: 274.379px 353.515px;" id="eldync3xb6cqi" class="animable"></path>
        <path d="M292.67,358.06a86.54,86.54,0,0,1-42.64-5.8,55.54,55.54,0,0,0-7.13-2.65,21,21,0,0,0-7.33-.52c-1.94.21-4,.8-5.19,2.35-1.73,2.29-.84,5.53.13,8.24,1.12,3.16,2.3,6.41,4.5,8.95,2.58,3,6.32,4.66,10.07,5.84,7.34,2.31,15.09,3,22.77,3.28l26.41-1.44Z" style="fill: rgb(224, 224, 224); transform-origin: 261.829px 363.362px;" id="eliqxi456e9f8" class="animable"></path>
        <path d="M288.76,376.17a8,8,0,0,1-1.87-2A16.76,16.76,0,0,1,284,361.54a7.68,7.68,0,0,1,.8-2.61c.09,0-.21,1-.41,2.67A18.69,18.69,0,0,0,287.22,374C288.12,375.34,288.83,376.1,288.76,376.17Z" style="fill: rgb(38, 50, 56); transform-origin: 286.259px 367.55px;" id="eloowgl918a3" class="animable"></path>
        <path d="M241.69,349.62a2.34,2.34,0,0,1,.41.71,12.08,12.08,0,0,1,.69,2.11,13.64,13.64,0,0,1-4.3,13.4,11.76,11.76,0,0,1-1.8,1.3c-.46.26-.72.37-.74.34s1-.66,2.27-1.93a14.36,14.36,0,0,0,4.19-13C242.08,350.72,241.6,349.66,241.69,349.62Z" style="fill: rgb(38, 50, 56); transform-origin: 239.552px 358.552px;" id="ellc4c4qheab" class="animable"></path>
        <path d="M288.49,362.46a8.14,8.14,0,0,1-4.19.19c0-.16.92-.32,2.08-.38S288.48,362.3,288.49,362.46Z" style="fill: rgb(38, 50, 56); transform-origin: 286.395px 362.545px;" id="el6kb5mzh6p7i" class="animable"></path>
        <path d="M287.69,369.67c.06.13-.46.48-1.2.48s-1.26-.35-1.19-.48.58-.07,1.19-.08S287.63,369.52,287.69,369.67Z" style="fill: rgb(38, 50, 56); transform-origin: 286.494px 369.86px;" id="elkstum9izsh" class="animable"></path>
        <path d="M379.66,342c-2.06-5.84-2.41-14.44-15.13-18.57s-22.36,3.78-28.9,6.53-42.3,22.36-42.3,22.36-6.74,12-4.82,17.32,10.63,10.54,10.63,10.54h40c10.32,0,29.52-.34,29.52-.34a117.3,117.3,0,0,0,6.88-13.07l.35-1.72C375.88,363.68,381.72,347.86,379.66,342Z" style="fill: rgb(253, 51, 121); transform-origin: 334.133px 351.22px;" id="elj5v7n0xeupm" class="animable"></path>
        <path d="M357.5,372.4a1.19,1.19,0,0,1-.29.54,7.53,7.53,0,0,1-1.32,1.19,34.26,34.26,0,0,1-5.65,3.16,36.44,36.44,0,0,1-4.18,1.65,30.66,30.66,0,0,1-5,1.08,93.83,93.83,0,0,1-11.75.46c-8.32.14-15.86.45-21.32.39-2.73,0-4.95-.13-6.47-.29a16.09,16.09,0,0,1-1.74-.25,2.3,2.3,0,0,1-.6-.14c0-.05.84.09,2.36.17s3.72.15,6.45.12c5.45,0,13-.42,21.31-.55a100.85,100.85,0,0,0,11.69-.42,30.22,30.22,0,0,0,5-1,36.54,36.54,0,0,0,4.15-1.56,38.23,38.23,0,0,0,5.69-3,8.42,8.42,0,0,0,1.35-1.08C357.41,372.59,357.47,372.38,357.5,372.4Z" style="fill: rgb(38, 50, 56); transform-origin: 328.34px 376.638px;" id="el7s7wfu3f3eu" class="animable"></path>
        <path d="M299.14,380.19a5,5,0,0,1-.53-.28c-.34-.2-.84-.5-1.49-.93a34.93,34.93,0,0,1-5.26-4.18,16.12,16.12,0,0,1-3-3.83,8.84,8.84,0,0,1-.59-5.69,48,48,0,0,1,4.83-13l0-.06.06,0c6.55-3.6,14.06-7.7,22.28-12.11,4.11-2.2,8.39-4.48,12.83-6.78,2.23-1.14,4.47-2.3,6.83-3.37s4.59-2.3,6.94-3.49a39.3,39.3,0,0,1,10.34-3.89,25.12,25.12,0,0,1,5.38-.49,25.54,25.54,0,0,1,14.4,5.13,18,18,0,0,1,3.33,3.6A20.31,20.31,0,0,1,377.7,335c.56,1.45,1,2.92,1.38,4.35a36.68,36.68,0,0,1,1.14,4.23,28,28,0,0,1-.68,8.18c-.52,2.55-1.15,4.93-1.78,7.15-.32,1.11-.63,2.18-.94,3.22a29.08,29.08,0,0,0-.78,3v0c-.14.65-.25,1.19-.36,1.72h0a41.71,41.71,0,0,1-4.59,10,17.33,17.33,0,0,1-2.44,3.06,1.52,1.52,0,0,1,.15-.21l.48-.57A28.46,28.46,0,0,0,371,376.7a43.17,43.17,0,0,0,4.43-10h0c.1-.53.21-1.07.34-1.72v0a25.85,25.85,0,0,1,.77-3.06c.29-1,.6-2.11.91-3.22.61-2.22,1.23-4.59,1.73-7.13a27.62,27.62,0,0,0,.63-8,34.21,34.21,0,0,0-1.14-4.16c-.42-1.43-.82-2.88-1.38-4.3a20.56,20.56,0,0,0-2.11-4.12,17.74,17.74,0,0,0-3.23-3.49,24.32,24.32,0,0,0-9-4.25,23,23,0,0,0-5.12-.73,24.59,24.59,0,0,0-5.26.48,38.71,38.71,0,0,0-10.19,3.84c-2.34,1.19-4.6,2.5-7,3.51s-4.58,2.22-6.8,3.35c-4.44,2.29-8.72,4.56-12.84,6.75l-22.31,12,.09-.08a48,48,0,0,0-4.88,12.89,8.64,8.64,0,0,0,.51,5.5,16.29,16.29,0,0,0,2.89,3.8,38.51,38.51,0,0,0,5.15,4.25l1.45,1Z" style="fill: rgb(38, 50, 56); transform-origin: 334.161px 351.138px;" id="el2aysm0nmf8u" class="animable"></path>
        <path d="M364.23,365.36s11.92,1.42,10.86,7.25-5,7.79-5,7.79l-32.38.07S357.09,379.13,364.23,365.36Z" style="fill: rgb(224, 224, 224); transform-origin: 356.433px 372.915px;" id="el7k91klj1io4" class="animable"></path>
        <path d="M365.39,362.52a4.42,4.42,0,0,1-.36,1.66,12.81,12.81,0,0,1-1.94,3.61,9.66,9.66,0,0,1-4.55,3.49c-.11-.16,2.22-1.36,4.11-3.83S365.21,362.46,365.39,362.52Z" style="fill: rgb(38, 50, 56); transform-origin: 361.963px 366.899px;" id="elkyw9e2z1fcp" class="animable"></path>
        <path d="M361.25,364.81c.16,0,0,2-1.15,4.15a9.19,9.19,0,0,1-2.6,3.44c-.12-.11,1.05-1.62,2.1-3.69S361.1,364.79,361.25,364.81Z" style="fill: rgb(38, 50, 56); transform-origin: 359.397px 368.605px;" id="elq4vbiknanvm" class="animable"></path>
        <path d="M376.45,378.78c-.09,0,.68-1.53,1.62-4a43,43,0,0,0,2.34-20.51c-.35-2.65-.76-4.26-.66-4.28a4.82,4.82,0,0,1,.37,1.11,28,28,0,0,1,.68,3.11,38.32,38.32,0,0,1-2.37,20.71,28.89,28.89,0,0,1-1.36,2.89A5,5,0,0,1,376.45,378.78Z" style="fill: rgb(38, 50, 56); transform-origin: 378.871px 364.385px;" id="ellm9mr9twihh" class="animable"></path>
        <g id="elfq5yuccr7yq">
            <g style="opacity: 0.3; transform-origin: 354.195px 370.159px;" class="animable">
                <path d="M369.71,362.21c-.08-.78-.39-1.71-1.17-1.87-.94-.19-1.59.89-2,1.78C362.46,371.62,349,379,338.65,380a96,96,0,0,0,15-1.22A22.84,22.84,0,0,0,365,373.53,13.82,13.82,0,0,0,369.71,362.21Z" id="eldsk3jrywhvg" class="animable" style="transform-origin: 354.195px 370.159px;"></path>
            </g>
        </g>
        <path d="M290.81,349.29a67.68,67.68,0,0,1-11.24-4.87,33.79,33.79,0,0,1,5.73,2.18A34.33,34.33,0,0,1,290.81,349.29Z" style="fill: rgb(38, 50, 56); transform-origin: 285.19px 346.855px;" id="els5exhp9te6" class="animable"></path>
        <g id="elgiuovydhv3h">
            <g style="opacity: 0.2; transform-origin: 274.107px 344.543px;" class="animable">
                <path d="M302.36,344.29q-23.13-4.43-46.43-7.87l-11.58,3.66c3.25,6,9.66,9.87,16.32,11.46s13.62,1.21,20.44.59c7.5-.7,15.22-1.74,21.75-5.51.5-.29,1.06-.72,1-1.29S303,344.41,302.36,344.29Z" id="elhl29x0dts9m" class="animable" style="transform-origin: 274.107px 344.543px;"></path>
            </g>
        </g>
        <path d="M226.43,298.34l19.43,43a5,5,0,0,0,4.51,3l56.68.73,7.14-3.84L303,340.36l-17.41-41.8a3.6,3.6,0,0,0-3.3-2.21l-54.3-.42A1.71,1.71,0,0,0,226.43,298.34Z" style="fill: rgb(224, 224, 224); transform-origin: 270.235px 320.5px;" id="elnftmkqk0kdm" class="animable"></path>
        <path d="M301.34,345a2.08,2.08,0,0,1-.26-.47l-.65-1.39-2.28-5.15c-1.89-4.36-4.47-10.4-7.24-17.1S285.7,308,284,303.59c-.85-2.22-1.52-4-1.95-5.28-.2-.58-.36-1.06-.5-1.45a2,2,0,0,1-.13-.52,2.33,2.33,0,0,1,.24.48c.16.38.35.85.59,1.41.53,1.31,1.25,3.07,2.11,5.22,1.84,4.46,4.32,10.5,7.06,17.17s5.24,12.7,7.09,17.17c.86,2.14,1.58,3.9,2.11,5.22l.55,1.42A2.55,2.55,0,0,1,301.34,345Z" style="fill: rgb(38, 50, 56); transform-origin: 291.38px 320.67px;" id="eldt6u3nn75d8" class="animable"></path>
        <path d="M266.18,319.18a2.78,2.78,0,1,1-2.78-2.78A2.78,2.78,0,0,1,266.18,319.18Z" style="fill: rgb(255, 255, 255); transform-origin: 263.4px 319.18px;" id="ellr5y1qm7xva" class="animable"></path>
    </g>
    <g id="freepik--Floor--inject-11" class="animable" style="transform-origin: 250px 485.15px;">
        <path d="M457.49,485.15c0,.15-92.91.26-207.48.26s-207.5-.11-207.5-.26,92.89-.26,207.5-.26S457.49,485,457.49,485.15Z" style="fill: rgb(38, 50, 56); transform-origin: 250px 485.15px;" id="elhqsn1tutw" class="animable"></path>
    </g>
    <defs>
        <filter id="active" height="200%">
            <feMorphology in="SourceAlpha" result="DILATED" operator="dilate" radius="2"></feMorphology>
            <feFlood flood-color="#32DFEC" flood-opacity="1" result="PINK"></feFlood>
            <feComposite in="PINK" in2="DILATED" operator="in" result="OUTLINE"></feComposite>
            <feMerge>
                <feMergeNode in="OUTLINE"></feMergeNode>
                <feMergeNode in="SourceGraphic"></feMergeNode>
            </feMerge>
        </filter>
        <filter id="hover" height="200%">
            <feMorphology in="SourceAlpha" result="DILATED" operator="dilate" radius="2"></feMorphology>
            <feFlood flood-color="#ff0000" flood-opacity="0.5" result="PINK"></feFlood>
            <feComposite in="PINK" in2="DILATED" operator="in" result="OUTLINE"></feComposite>
            <feMerge>
                <feMergeNode in="OUTLINE"></feMergeNode>
                <feMergeNode in="SourceGraphic"></feMergeNode>
            </feMerge>
            <feColorMatrix type="matrix" values="0   0   0   0   0                0   1   0   0   0                0   0   0   0   0                0   0   0   1   0 "></feColorMatrix>
        </filter>
    </defs>
</svg>